<?xml version="1.0" encoding="UTF-8"?>
<svg id="_レイヤー_2" data-name="レイヤー 2" xmlns="http://www.w3.org/2000/svg" viewBox="0 0 128.1985706 65.0168032">
  <defs>
    <style>
      .cls-1 {
        fill: #231815;
      }
    </style>
  </defs>
  <g id="_レイヤー_1-2" data-name="レイヤー 1">
    <g>
      <path class="cls-1" d="m.6985677,11.4398231l-.6985677-1.3967467c.6197974-.1106411,1.467614-.2992751,2.5434497-.5652542,1.0758357-.2661087,2.2884829-.570566,3.6420873-.9145381,1.3515315-.3434538,2.7486669-.7036204,4.1893332-1.0808884l.0994993.4323294c-.9535345.5103223-2.1226508,1.1088725-3.5073487,1.7957802-1.3867709.6875554-3.0222899,1.4633386-4.906557,2.327868-.1326657.399163-.3544661.6651422-.6633284.7981965l-.6985677-1.3967467Zm11.573007,15.1977338c.6633284.4214467,1.0177945.7207218,1.0633983.8979549.0435309.1776217-.1223012.2550964-.4995692.2328127l-.7649005-.033296c-.9079307.4214467-1.9734019.8313629-3.1922677,1.2303964-1.2188659.399163-2.516502.7534996-3.8908354,1.0641756-1.3743335.3102874-2.7486669.5539828-4.1230004.7316045l-.1658321-.5652542c1.573332-.3990335,3.1466639-.9426518,4.7220688-1.6295594,1.0198674-.4209285,2.0231515-.9254208,3.0098524-1.5130883.984628-.5871492,1.7889137-1.2138132,2.410784-1.8789553l1.4303018,1.4632091ZM1.9277981,1.163934l.3005707-.3325711c1.529801.2659791,2.7362295.6375467,3.6234312,1.1140548.8872017.4770264,1.5132178.9867009,1.8801213,1.5296715.3648306.5436183.5265169,1.0367097.4809131,1.4799219-.0435309.4437304-.2259462.7540178-.5472459.9311213-.3233726.1777513-.7275883.1444553-1.2147201-.0997584-.2653313-.5096746-.6488181-1.0584751-1.1463143-1.6461426-.4995692-.5871492-1.0530338-1.1415207-1.6645396-1.6627258-.6094329-.5206869-1.1794807-.9587168-1.7122163-1.3135715Zm19.288345,11.3067688l.5327356-.7316045c.1554676-.1771035.2881333-.3491543.397997-.515375.1119367-.1663503.2342378-.2495255.3669035-.2495255.1098638,0,.2881333.0888756.5327356.2661087.2425294.1777513.503715.3881507.7814837.6318462.2756959.2442137.5140795.4822086.713078.7150213.2010714.2328127.3005707.4156167.3005707.548671-.1119367.1111593-.27155.2276305-.482986.3491543-.2114359.1221716-.4601841.2053468-.7483173.2495255v3.8908354c.0228019,1.3083893.0456038,2.3725649.0663328,3.1925269.0228019.8204802.0497496,1.5577852.082916,2.2115264.0352393.6541299.0725515,1.3800339.1181554,2.1782304-.1554676.1776217-.4436008.371438-.8664727.581967-.4207989.2109177-.7980669.3158583-1.1297311.3158583h-.3316642v-1.3301547H7.715338v1.0308796c0,.1111593-.188634.2607969-.565902.4489127-.377268.188634-.7773379.2826919-1.1981369.2826919-.1554676,0-.2881333-.0716446-.397997-.2160999-.1119367-.1439371-.1658321-.2935746-.1658321-.4490422.0435309-.5538533.0766973-1.0526451.0994993-1.4963755.020729-.4433417.0435309-.9312508.0663328-1.4633386.020729-.5320878.0435309-1.2081127.0663328-2.0285929v-2.8599558c0-1.130638-.0331664-2.3221675-.0994993-3.5749771-.0663328-1.2522914-.1782695-2.3330502-.3337371-3.242406l2.6616051,1.2636924h13.3681394Zm.3337371,3.7246147v-2.7601974H7.715338v2.7601974h13.8345422Zm-13.8345422,3.7912066h13.8345422v-2.7934934H7.715338v2.7934934Zm0,.9975837v2.8600853h13.8345422v-2.8600853H7.715338ZM24.7753143,3.458506l.5638291-.7649005c.1554676-.1771035.294352-.3491543.4166531-.515375.1223012-.1663503.2487481-.2495255.3834867-.2495255.0870618,0,.2487481.1055884.4809131.3159879.2321649.2109177.482986.4656254.7483173.7649005s.4871318.581967.6654013.8479461c.1761966.2661087.2653313.4656254.2653313.5986798-.1098638.1329248-.2653313.2160999-.4643299.2493959-.2010714.033296-.4560382.0612801-.7649005.0831752-.4436008.4437304-1.0198674.9477045-1.7308724,1.5130883-.7089322.5653838-1.341167,1.0142964-1.8946316,1.3468675l-.4664028-.2328127c.2446023-.3767498.5223711-.8365452.8333063-1.3801635.3088623-.5429705.586631-1.0693579.8312334-1.5795507h-5.5885415c.3337371.9975837.8706185,1.9069395,1.6127171,2.7269014.7441715.8204802,1.7847679,1.541202,3.1280078,2.1616472,1.3390941.6209634,3.0865498,1.130638,5.2361483,1.5296715l-.0663328.399163c-.5099337.0887461-.9079307.2442137-1.196064.4654959-.2881333.22193-.4892047.6100807-.5990684,1.163934-1.8842671-.5096746-3.4037037-1.152533-4.5562367-1.9288345-1.152533-.7757832-2.0397347-1.6570253-2.6595322-2.6437263-.6218703-.9863123-1.0758357-2.0337751-1.3639689-3.1426477-.6654013,1.9735314-1.824153,3.458506-3.4762552,4.4562192s-3.8286484,1.7183055-6.5337844,2.1616472l-.1326657-.5320878c2.4377317-.6651422,4.2888324-1.5184001,5.5533021-2.5606807,1.2623968-1.0418919,2.1288695-2.4609223,2.5931993-4.2567025h-3.4907655c-.5990684.5985502-1.258251,1.163934-1.9796206,1.6960218s-1.4800514.9758182-2.2781183,1.3301547l-.3316642-.3990335c.1989985-.1548198.3938512-.3159879.5824852-.4822086.1865611-.1662208.3689764-.3377533.5472459-.5155046.5099337-.5320878.9867009-1.1524035,1.4303018-1.8622426.4436008-.7093209.8208688-1.4352249,1.131804-2.1782304.3088623-.7424873.5078608-1.4243422.5969955-2.0451761,1.2188659.3548548,2.0729011.6375467,2.5621058.8479461.4871318.2109177.7420986.3658671.7649005.4656254.020729.0997584-.0559683.1719212-.2342378.2160999l-.5306627.0997584c-.2010714.3108056-.4104344.6209634-.6322348.9312508-.2218004.3106761-.4664028.6099512-.7317341.8978253h10.7749401Zm-8.5465714,23.2788093l.0994993-.5320878c2.4605336.1554676,4.4505187.4048635,5.9699553.7483173,1.5173636.343972,2.6595322.7207218,3.4244327,1.130638.7649005.4100458,1.2416678.8090792,1.4303018,1.19723.188634.3876325.1824153.7150213-.0165832.9810005-.1989985.2661087-.5057879.4209285-.9141494.4656254-.4104344.0441787-.8270876-.0779929-1.2478865-.3658671-.8643998-.6209634-2.033516-1.2585101-3.5094216-1.9121217-1.4738327-.6537412-3.2192155-1.2248255-5.2361483-1.7127346Z"/>
      <path class="cls-1" d="m43.4977574,12.9363282l.5990684-.8979549c.1761966-.2436954.3254455-.4597954.4477466-.6484294.1223012-.1881158.250821-.2826919.3834867-.2826919.1098638,0,.2922791.0945761.5493188.2826919.2528939.188634.5368814.410564.8478166.6651422.3088623.2550964.5700478.5044923.7814837.7481878.209363.2442137.315081.4323294.315081.5653838-.0663328.3548548-.3441016.5320878-.8312334.5320878h-5.4869693v2.2281096c1.4841972.4214467,2.6388031.9311213,3.4575991,1.529801.8208688.5985502,1.3909167,1.1971004,1.7142892,1.7957802.3192268.5985502.4477466,1.1197553.3814138,1.5629675-.0663328.4437304-.2653313.7483173-.5990684.9145381-.3316642.1662208-.7192967.0945761-1.1628975-.2160999-.1554676-.5762665-.4332363-1.1692458-.8312334-1.779197-.4000699-.6095625-.860254-1.19723-1.3805522-1.7626137-.5202982-.5652542-1.0468151-1.0584751-1.5795507-1.4797923v5.2875821c.020729,1.3302843.0435309,2.4167436.0663328,3.2589893.0228019.8428934.0497496,1.6077939.082916,2.2947016.0331664.6874258.0725515,1.4409254.1160825,2.2614056-.1326657.2436954-.3814138.4706781-.7483173.6817254-.3648306.2103995-.7358799.3158583-1.1131479.3158583-.1782695,0-.3378829-.0721629-.482986-.2160999-.1430302-.1444553-.2155817-.2940928-.2155817-.4490422.0663328-.9092263.1160825-1.7183055.1492489-2.4276263.0331664-.7091913.0663328-1.4965051.0994993-2.3611639.0331664-.8645293.062187-1.9728837.082916-3.3254516v-4.4230528c-.7317341,1.5520847-1.5961339,3.0044111-2.5931993,4.3564608-.9970654,1.352568-2.1288695,2.5939767-3.3912663,3.7246147l-.3669035-.4654959c1.2416678-1.5739797,2.3112848-3.3421644,3.208851-5.3042949.8975662-1.9621305,1.6127171-3.9626096,2.1454527-6.0026035h-1.7287995c-.5327356.0222837-1.0364506.0721629-1.5132178.1496376-.4767673.0779929-.9701177.1829335-1.4800514.3159879l-.8643998-1.6960218c.7317341.0887461,1.4634682.1496376,2.1952023.182804.7317341.033296,1.4738327.0614097,2.2283687.0831752h2.159963v-5.8529659c0-1.130638-.0331664-2.3221675-.0994993-3.5749771-.0663328-1.2522914-.1761966-2.3330502-.3316642-3.242406,1.196064.3548548,2.033516.6375467,2.5102833.8480757.4767673.2109177.7192967.3881507.7317341.5320878.0103645.1444553-.082916.2825623-.2819146.4156167l-.565902.3658671v10.5087019h2.3942008Zm-10.2090381-9.5775806l.397997-.1662208c1.0862002.8204802,1.8967045,1.6294298,2.4273672,2.4276263.5327356.7980669.860254,1.5296715.9825551,2.1948136.1202283.6651422.0994993,1.2138132-.0663328,1.6461426-.167905.4323294-.4166531.6931263-.7483173.7814837-.3337371.0888756-.6882032-.0550614-1.0654712-.4323294-.020729-.7091913-.126447-1.4518081-.315081-2.2281096-.188634-.7757832-.4332363-1.5296715-.7317341-2.261276-.2984978-.7317341-.5928497-1.3853457-.880983-1.9621305Zm12.4705732.1995167c.775265.1777513,1.2085014.3491543,1.2976361.5155046.0870618.1662208-.0124374.3158583-.3005707.4489127l-.5306627.2328127c-.5120066.9977132-1.0716899,2.0342933-1.6811228,3.1093517-.6094329,1.0755766-1.1919182,2.0234106-1.7453828,2.8433726l-.5327356-.2661087c.0456038-.1329248.0891347-.2659791.1347386-.3990335.0435309-.1330543.0870618-.2769914.1326657-.4323294.1989985-.7091913.3938512-1.4740918.5804123-2.294572.188634-.819962.3441016-1.6295594.4664028-2.4276263.1223012-.7981965.2052172-1.5075173.2487481-2.1283512l1.929871.7980669Zm12.2715747,16.3616678l.8643998-.1995167.4643299-1.1971004c.1347386-.3102874.2549668-.5929793.3669035-.8480757.1098638-.2545782.2321649-.3824503.3648306-.3824503.1119367,0,.3109352.0779929.5990684.2328127.2881333.155338.5928497.343972.9141494.5653838.3212997.2218004.6052871.4380299.8478166.6484294.2446023.2109177.3669035.3824503.3669035.5155046,0,.1776217-.0663328.3325711-.1989985.4654959-.1326657.1330543-.2881333.22193-.4664028.2661087l-4.1230004.9311213v3.0263061c.020729.9975837.0435309,1.8123634.0663328,2.4442095.020729.6318462.0435309,1.19723.0663328,1.6960218.020729.4987918.0559683,1.0584751.0994993,1.6794386-.1119367.2436954-.3606848.4765081-.7483173.6983086-.3876325.2214118-.7586818.3325711-1.1131479.3325711-.2218004,0-.3938512-.0721629-.5161524-.2160999-.1223012-.1444553-.1824153-.2940928-.1824153-.4490422.0435309-.6208339.082916-1.1753349.1160825-1.6627258s.0601141-1.0308796.082916-1.6295594c.0228019-.5985502.0435309-1.3634507.0663328-2.294572v-3.1592309l-9.2451391,2.0617593-.397997-.8646589,9.6431361-2.1948136V7.0833623c0-1.130638-.0331664-2.3221675-.0994993-3.5749771-.0663328-1.2522914-.1782695-2.3330502-.3316642-3.242406,1.196064.3548548,2.0376618.6375467,2.5268665.8480757.4871318.2109177.7420986.3881507.7649005.5320878.020729.1444553-.0559683.2825623-.2342378.4156167l-.5638291.3658671v17.4923058Zm-10.4101095-8.3137587l.3005707-.3325711c1.4841972.3106761,2.6429489.7207218,3.4741823,1.2303964.8312334.5103223,1.4137186,1.0424102,1.7453828,1.5962634.3337371.5545011.4767673,1.0532929.4332363,1.4965051-.0456038.4437304-.2280191.7481878-.5493188.9145381-.3212997.1662208-.7151509.1163416-1.1794807-.1496376-.1989985-.5539828-.5327356-1.1307676-.9991383-1.7293178-.4643299-.5985502-.9867009-1.163934-1.5629675-1.6960218s-1.1297311-.9753-1.6624667-1.3301547Zm.7980669-7.7818004l.3005707-.2994047c1.4406663.377268,2.5600329.8371929,3.3580998,1.3801635.7980669.5434888,1.3473857,1.0974716,1.6458835,1.6627258.3005707.5653838.4166531,1.0641756.3503203,1.4965051s-.2611855.7264223-.5824852.8813717c-.3212997.155338-.7047864.0887461-1.1483872-.1996463-.1761966-.5762665-.4767673-1.1691162-.8975662-1.7790674-.4207989-.6095625-.9037849-1.185829-1.446885-1.7293178-.5431001-.5429705-1.069617-1.0142964-1.5795507-1.4133299Z"/>
      <path class="cls-1" d="m71.9980751,7.7816709h-1.929871c-.5969955.0224132-1.1919182.0722924-1.7785492.1497671-.586631.0778633-1.1691162.182804-1.7453828.3158583l-.8312334-1.6960218c.7317341.0888756,1.4634682.1496376,2.1952023.1829335.7317341.0331664,1.4738327.0612801,2.2262958.0831752h4.5894031l.5990684-.8979549c.1554676-.2436954.3047165-.4599249.4498195-.6484294.1430302-.1881158.2819146-.2826919.4145802-.2826919.1119367,0,.294352.0945761.5493188.2826919.2549668.1885044.5265169.4156167.8146501.6817254.2881333.2659791.5368814.5210755.7483173.764771.2114359.2442137.315081.4323294.315081.5653838-.0663328.3325711-.3441016.4987918-.8312334.4987918h-5.7854671Zm1.0633983-5.1545278l.565902-.8646589c.1761966-.2214118.3275184-.426629.4498195-.615263.1202283-.1881158.2487481-.2826919.3814138-.2826919.1098638,0,.294352.0888756.5493188.2661087.2549668.1777513.5265169.3938512.8146501.6484294.2881333.255226.5368814.5046219.7483173.7483173.209363.2442137.315081.4323294.315081.5653838-.0663328.3548548-.3316642.5320878-.7980669.5320878h-3.1591013c-.8643998.0222837-1.7080705.0721629-2.5268665.1496376-.8208688.0778633-1.6417377.182804-2.4605336.3158583l-.8664727-1.7293178c.6654013.0888756,1.3370212.1496376,2.012787.1829335.6757658.033296,1.3577502.0612801,2.0459534.0831752h1.9277981Zm-3.6234312,25.1743478v.7649005c.0435309.3767498.0663328.6594417.0663328.8480757,0,.1881158.020729.360037.0663328.515375-.0663328.1995167-.27155.393333-.6156516.581967-.3441016.1881158-.7275883.2826919-1.1483872.2826919-.1554676,0-.2756959-.0721629-.3648306-.2160999-.0891347-.1444553-.1326657-.2940928-.1326657-.4490422.0435309-.5543715.0766973-1.0474629.0994993-1.4797923.020729-.4323294.0538954-1.0693579.0994993-1.9122513v-2.0617593c0-1.0418919-.0331664-2.1393635-.0994993-3.2922852-.0663328-1.152533-.1658321-2.1502463-.2984978-2.9930101l2.4937001,1.163934h4.4214981l.4995692-.5986798c.1326657-.1548198.2549668-.2992751.3669035-.4321999.1098638-.1330543.2321649-.1996463.3648306-.1996463.1098638,0,.2881333.0779929.5327356.2328127.2425294.155338.5099337.343972.7980669.5653838.2881333.2218004.5306627.4380299.7317341.6484294.1989985.2110472.2984978.3824503.2984978.5155046-.2446023.3106761-.6757658.5212051-1.2976361.6318462v2.660439c.0228019.8869426.0456038,1.6076644.0684057,2.1616472.020729.5543715.0435309,1.0531633.0663328,1.4965051.020729.4437304.0435309.9311213.0663328,1.4632091-.1119367.177233-.3731222.360037-.7814837.548671-.4104344.1881158-.7814837.2826919-1.1152208.2826919-.1554676,0-.2611855-.0721629-.315081-.2160999-.0559683-.1444553-.082916-.2940928-.082916-.4490422.0435309-.0664624.0663328-.1329248.0663328-.1995167,0-.0664624.0103645-.155338.0331664-.2659791v-.5986798h-4.8879009Zm4.0898339-16.7607012l.565902-.7981965c.1761966-.1995167.3254455-.3876325.4477466-.5652542.1223012-.177233.2487481-.2661087.3834867-.2661087.1326657,0,.3710493.1387548.7151509.4157462.3420287.2773801.6695471.5767847.9804822.8978253.3088623.3216883.4643299.5710843.4643299.7483173-.0663328.3548548-.3212997.5320878-.7649005.5320878h-3.3249334c-.8643998.0222837-1.7080705.0721629-2.5268665.1496376-.8208688.0778633-1.6417377.1829335-2.4605336.3158583l-.8312334-1.6960218c.7089322.0888756,1.4240831.1496376,2.1433798.1829335.7213696.033296,1.446885.0612801,2.1786191.0831752h2.0293702Zm0,4.2567025l.565902-.8313629c.1761966-.1995167.3254455-.3876325.4477466-.5653838.1223012-.177233.2487481-.2661087.3834867-.2661087.1326657,0,.3710493.1387548.7151509.4157462.3420287.2775096.6695471.581967.9804822.9145381.3088623.3325711.4643299.5876675.4643299.7649005-.0663328.3548548-.3212997.5320878-.7649005.5320878h-3.3249334c-.8643998.0222837-1.7080705.0721629-2.5268665.1496376-.8208688.0778633-1.6417377.1829335-2.4605336.3158583l-.8312334-1.6960218c.7089322.0888756,1.4240831.1496376,2.1433798.1829335.7213696.033296,1.446885.0612801,2.1786191.0831752h2.0293702Zm-4.0898339,5.2542861v6.2521289h4.8879009v-6.2521289h-4.8879009Zm20.8160732-13.2023073l.5990684-.8979549c.1782695-.2214118.3275184-.426629.4498195-.615263.1202283-.1881158.2487481-.2826919.3814138-.2826919.1119367,0,.294352.0888756.5493188.2661087.2549668.1777513.5265169.3938512.8146501.6484294.2881333.255226.5368814.4989214.7483173.7316045.2114359.2328127.315081.4157462.315081.5488006-.0870618.3548548-.377268.5320878-.8643998.5320878h-5.8517999v2.8932518h4.1893332l.6654013-.9312508c.1761966-.2436954.3378829-.4597954.482986-.6484294.1430302-.1881158.2819146-.2826919.4145802-.2826919.1119367,0,.3005707.0945761.565902.2826919.2653313.188634.5493188.4214467.8478166.6983086.2984978.2775096.5596833.5377883.7814837.7816133.2218004.2442137.3316642.4321999.3316642.5652542-.0870618.3549843-.3544661.5320878-.7980669.5320878h-11.5398406c-.8643998.0224132-1.6997789.0722924-2.5102833.1496376-.8084314.0779929-1.635519.1829335-2.4771169.3159879l-.8312334-1.7293178c.7317341.0888756,1.4634682.1496376,2.1952023.1829335s1.4738327.0612801,2.2283687.0831752h3.3580998v-2.8932518h-1.8614652c-.5555375.0222837-1.1090021.0721629-1.6645396.1496376-.5534646.0778633-1.1069292.1829335-1.6624667.3158583l-.8312334-1.6627258c.6654013.0888756,1.3308025.1496376,1.9962038.1829335.6654013.0331664,1.3515315.0612801,2.0604637.0831752h1.9630374v-2.727031h-2.1620359c-.7089322.0224132-1.384698.0722924-2.0272973.1496376-.6446723.0779929-1.2976361.1829335-1.9630374.3159879l-.8312334-1.7293178c.7317341.0888756,1.4634682.1496376,2.1952023.1829335.7317341.0331664,1.4738327.0612801,2.2283687.0831752h2.5600329c0-.5098041-.0165832-1.0641756-.0497496-1.6628554-.0331664-.5985502-.082916-1.130638-.1492489-1.5962634,1.1297311.3548548,1.9277981.6318462,2.3942008.8313629.4643299.1995167.7089322.3658671.7317341.4989214.020729.1329248-.0663328.2659791-.2674042.3990335l-.5638291.3657375v1.1640635h3.5902648l.6322348-.8979549c.1554676-.2436954.3047165-.4599249.4498195-.6484294.1430302-.1881158.2819146-.2826919.4145802-.2826919.1119367,0,.3005707.0945761.565902.2826919.2653313.1885044.5493188.4156167.8478166.6817254.3005707.2659791.5596833.5210755.7814837.764771.2218004.2443432.3337371.4323294.3337371.5653838-.0891347.3548548-.377268.5320878-.8664727.5320878h-6.7493661v2.727031h2.8585307Zm-8.0801686,16.7607012v1.9621305c.0228019.9758182.0435309,1.7017223.0663328,2.1782304.0228019.4763786.0559683,1.0027659.0994993,1.5795507-.0891347.1995167-.3109352.4043453-.6654013.615263-.3544661.2103995-.7420986.3158583-1.1628975.3158583-.1554676,0-.2881333-.0664624-.4000699-.1995167-.1098638-.1329248-.1658321-.2883924-.1658321-.4654959.0435309-.7098391.082916-1.3359848.1160825-1.8789553s.062187-1.152533.082916-1.8290761c.0228019-.6760249.0456038-1.5349833.0663328-2.5772639v-3.491802c0-1.1307676-.0331664-2.3221675-.0994993-3.5749771-.0663328-1.2522914-.1761966-2.3331798-.3316642-3.242406l2.5600329,1.2303964h8.1485744l.4311634-.6651422c.1326657-.1771035.250821-.3324415.3503203-.4654959s.2155817-.1995167.3482474-.1995167c.1119367,0,.3005707.0830456.565902.2493959.2653313.1662208.5534646.3657375.8643998.5985502s.5762665.4604432.7980669.6817254c.2218004.22193.3337371.399163.3337371.5320878-.2010714.2661087-.6550368.4770264-1.3639689.6318462v11.6727654c0,.5762665-.062187,1.0750584-.1824153,1.4965051-.1223012.4207989-.3834867.764771-.7835566,1.0308796-.397997.2659791-1.0405964.4432122-1.9277981.5320878-.0456038-.3325711-.1119367-.6375467-.1989985-.9145381-.0891347-.2775096-.2218004-.5044923-.4000699-.6817254-.3316642-.3325711-1.0426693-.5986798-2.1288695-.7981965v-.5320878c.5099337.0446969.94317.0779929,1.2976361.0997584.3544661.0224132.6882032.0446969.9970654.0665919.3109352.0222837.5327356.033296.6654013.033296.2674042,0,.4373821-.0441787.5161524-.1330543.0766973-.0883574.1160825-.2547077.1160825-.4989214v-3.3587476h-8.6129042Zm8.6129042-5.2211197v-3.1592309h-8.6129042v3.1592309h8.6129042Zm-8.6129042.9644173v3.3255812h8.6129042v-3.3255812h-8.6129042Z"/>
      <path class="cls-1" d="m123.8765717,7.316175l.6985677-.9977132c.1761966-.2436954.3441016-.4708077.4974963-.6817254.1554676-.2103995.3005707-.3158583.4332363-.3158583.0891347,0,.2777688.0997584.565902.2992751s.5990684.4437304.9307326.7316045c.3316642.2883924.6156516.5653838.8478166.8313629.2321649.2661087.3482474.4656254.3482474.5985502-.0663328.3549843-.3420287.5320878-.8312334.5320878h-12.2695018v1.9288345c.3751951,1.3749812.8187959,2.6386736,1.3287296,3.7912066.5099337,1.1530513,1.0758357,2.2062146,1.6956331,3.1592309.2218004-.2659791.4560382-.548671.6985677-.8480757.2446023-.2992751.4892047-.6037325.7317341-.9144085.6882032-.8646589,1.3370212-1.8342584,1.9464542-2.9099645.6094329-1.0750584,1.069617-2.0451761,1.3805522-2.909835,1.0862002.6651422,1.844882,1.163934,2.2781183,1.4965051.4311634.3325711.6529639.5602015.6633284.6817254.0124374.1221716-.0932806.1943345-.315081.2162295l-.5990684.0331664c-.7317341.8428934-1.6728312,1.7959097-2.8253642,2.8600853-1.1546059,1.0641756-2.327868,2.0399938-3.5260048,2.9264182,1.3080006,1.8623721,2.7984165,3.3977441,4.4733206,4.6058568,1.6728312,1.2086309,3.3643185,2.1897609,5.0703162,2.9431309l-.0663328.3658671c-.4436008.0888756-.8312334.3049756-1.1628975.6484294-.3337371.343972-.5762665.770601-.7317341,1.2804051-1.6624667-1.0418919-3.1984864-2.2448224-4.6059863-3.6082731-1.4074999-1.3634507-2.6616051-3.0038929-3.7581698-4.9218446-1.0965647-1.917304-1.9899851-4.2399897-2.6761154-6.9670207v15.2643257c0,.6209634-.0787702,1.1582335-.2342378,1.6128466-.1554676.4540949-.4809131.8256624-.9804822,1.1140548-.4995692.2878741-1.2810529.4873909-2.3444512.5985502-.0456038-.3548548-.1285199-.6764136-.2487481-.9642877-.1223012-.2883924-.3047165-.5103223-.5493188-.6651422-.2653313-.1995167-.6384535-.377268-1.1152208-.5320878-.4767673-.155338-1.1131479-.2883924-1.9112148-.3990335v-.5320878c.754536.0664624,1.3971354.1220421,1.929871.1662208.5306627.0446969,1.0343777.0831752,1.5111449.1163416.4767673.033296.8042856.0498792.9825551.0498792.3316642,0,.5534646-.0607619.6654013-.182804.1098638-.1216534.1658321-.3268706.1658321-.615263v-9.0787887c-1.1981369,1.0199969-2.6118554,2.1897609-4.2411557,3.5085147-1.6293003,1.319272-3.4866197,2.7767806-5.5698853,4.3730441-.0435309.4656254-.2114359.7763015-.4995692.9311213l-2.1267966-2.4607928c.6861303-.3325711,1.6790499-.8646589,2.976686-1.5962634,1.2955632-.7317341,2.7590314-1.5796802,4.3883317-2.5440975,1.6293003-.9644173,3.3207876-1.9787137,5.0723891-3.0428893v-8.9790304h-7.317341c-.8643998.0224132-1.7059976.0722924-2.5268665.1497671-.8208688.0778633-1.6417377.182804-2.4605336.3158583l-.8643998-1.7293178c.7317341.0888756,1.4634682.1496376,2.1952023.1829335s1.4738327.0612801,2.2283687.0831752h8.7455699v-.2328127c0-1.130638-.0331664-2.3221675-.0994993-3.5749771-.0663328-1.2522914-.1782695-2.3330502-.3337371-3.242406,1.2188659.3548548,2.0729011.6375467,2.5621058.8480757.4871318.2109177.7483173.3824503.7814837.515375.0331664.1330543-.0497496.2661087-.250821.399163l-.5306627.3657375v4.9218446h8.7787363Zm-20.2854105,3.3255812l.3316642-.2661087c1.5526029.6432471,2.7548856,1.3359848,3.6089209,2.0784721.8519624.7430055,1.4303018,1.4632091,1.7287995,2.1616472.2984978.6983086.4000699,1.2969883.2984978,1.7957802-.0994993.4987918-.3316642.8204802-.6964948.9644173-.3669035.1444553-.7835566.0389965-1.2478865-.3159879-.1554676-.7091913-.4498195-1.4575086-.880983-2.2446928-.4332363-.786666-.9307326-1.5463842-1.4966346-2.2779888-.565902-.7316045-1.1152208-1.3634507-1.6458835-1.8955385Zm13.8677086-8.879272l.2653313-.2992751c1.3971354.2659791,2.4874814.6375467,3.2751838,1.1140548.7877024.4770264,1.3349483.9810005,1.6458835,1.5130883s.4332363,1.0142964.3669035,1.4466259-.2549668.7316045-.565902.8979549c-.3109352.1662208-.6882032.1163416-1.1297311-.1496376-.1782695-.5320878-.4788402-1.0808884-.8996391-1.6462722-.4207989-.5652542-.8913475-1.097342-1.4116457-1.5962634-.5223711-.4987918-1.0364506-.9254208-1.5463842-1.2802756Z"/>
    </g>
    <g>
      <path class="cls-1" d="m33.1643452,59.9067132l1.6728312.1672572v.6688993c-.1616863.049361-.3627577.0928919-.6032142.1300745-.2425294.0371827-.5182253.0558388-.8270876.0558388-.60736,0-1.0509609-.0900416-1.3287296-.2694771s-.4746944-.4800062-.5845581-.9013233l-.9307326-3.3447555c-.1347386-.5324765-.3130081-.9413562-.5285898-1.2263801-.2176546-.2848943-.5057879-.4800062-.8643998-.5853355-.3586119-.1051997-.8229417-.1580587-1.3929896-.1580587h-1.2458136c0,.9541823.0041458,1.8768824.0103645,2.7688777.0062187.8918657.020729,1.7777718.0456038,2.6572001l1.9319439.2044399v.6688993h-5.5180628v-.6688993l1.9319439-.2044399c.0248748-.8794283.041458-1.7714236.0476767-2.6758563.0062187-.9041736.0082916-1.8086062.0082916-2.7130389v-1.0219403c0-.9041736-.0020729-1.8086062-.0082916-2.7130389-.0062187-.9041736-.0228019-1.8025171-.0476767-2.6945124l-1.9319439-.2043103v-.6503727h5.5367189c1.5111449,0,2.6885528.3065303,3.5322235.9197203.8415979.6133196,1.2623968,1.4898977,1.2623968,2.6294751,0,.8176299-.2881333,1.5487163-.8643998,2.1927407-.5762665.6442836-1.4220102,1.0654712-2.5351581,1.2635628.5804123.1239854,1.0405964.3748064,1.3743335.7525927.3337371.3780453.6197974.9322873.8540353,1.6631145l1.0032841,3.2890463Zm-6.6332836-6.2065251h1.8407362c1.0882731,0,1.9195064-.2816554,2.4895543-.8454845.5700478-.56357.8540353-1.2728909.8540353-2.1277035,0-.8794283-.2591126-1.5608946-.7794108-2.0440101-.5202982-.4831155-1.3328754-.7247381-2.4356588-.7247381h-1.9132877c-.0248748.8919953-.0393851,1.8025171-.0456038,2.731695-.0062187.9290484-.0103645,1.9324621-.0103645,3.0102411Z"/>
      <path class="cls-1" d="m45.6515017,57.2308569h.9286597l-.1285199,3.5120127h-10.314756v-.6688993l1.9340168-.2044399c.0248748-.8794283.0393851-1.7714236.0456038-2.6758563.0062187-.9041736.0103645-1.8086062.0103645-2.7130389v-1.0219403c0-.9041736-.0041458-1.8086062-.0103645-2.7130389-.0062187-.9041736-.020729-1.8025171-.0456038-2.6945124l-1.9340168-.2043103v-.6503727h9.9416338l.1305928,3.4934862h-.9100036l-.5016421-2.6758563h-5.0723891c-.0269477.8796874-.041458,1.7716827-.0476767,2.6758563-.0062187.9044327-.0082916,1.8334811-.0082916,2.7872747h3.250309l.2798417-2.0068274h.7607547v4.7012102h-.7607547l-.2611855-1.9511182h-3.2689651c0,1.0284181.0020729,2.006957.0082916,2.9360053.0062187.9291779.020729,1.846048.0476767,2.7502216h5.4434384l.482986-2.6758563Z"/>
      <path class="cls-1" d="m59.6249282,63.8461322l.1865611.5574808c-.3482474.210529-.7379528.3652193-1.1711891.464589-.4332363.098981-.8478166.1486011-1.2458136.1486011-.8291605,0-1.5235823-.1890227-2.0811927-.5666793-.5555375-.3780453-.9784093-.8734687-1.2623968-1.4866588-.2860604-.6131901-.4332363-1.2792391-.4456737-1.9976289-.9410971-.1486011-1.8096427-.5138204-2.6014909-1.0963056-.7939211-.5820965-1.4323747-1.368633-1.9153606-2.3599979-.482986-.9908467-.7234425-2.1740846-.7234425-3.5491954,0-1.1023947.1658321-2.0872819.5016421-2.9545319.3337371-.8669909.7897753-1.6102555,1.3660418-2.2299234.5762665-.6192792,1.2313033-1.0899573,1.9692561-1.4121639.7358799-.322077,1.5028533-.4832451,2.2947016-.4832451s1.5526029.1550789,2.2760454.464589c.7255154.3097692,1.3722606.768269,1.9423084,1.3751108.5700478.6071009,1.0219403,1.3503655,1.3556773,2.2299234.33581.8796874.5016421,1.8831011.5016421,3.0102411,0,1.3629325-.2466752,2.5490206-.7420986,3.5585235-.4954234,1.0098915-1.1566788,1.8118451-1.9796206,2.4063791-.8229417.5946635-1.718435.9537936-2.684407,1.077779.0124374.9909763.27155,1.7620955.7794108,2.3134872.5078608.5511326,1.1898453.826958,2.0438805.826958.482986,0,1.028159-.0992401,1.635519-.2973318Zm-9.4399918-9.8857951c0,.8054516.0870618,1.58266.2611855,2.3321433.1720508.7496129.4353092,1.4186417.7897753,2.0068274.3523932.5885744.8022127,1.0562727,1.3473857,1.4029654.545173.3469518,1.1815536.5202982,1.9132877.5202982s1.361896-.1733464,1.8946316-.5202982c.5327356-.3466927.9763364-.814391,1.3287296-1.4029654.3544661-.5881857.6177245-1.2572145.7897753-2.0068274.1741237-.7494833.2611855-1.5266917.2611855-2.3321433,0-.805063-.0870618-1.5794211-.2611855-2.3228153-.1720508-.7432646-.4353092-1.4090545-.7897753-1.9974994-.3523932-.5883153-.795994-1.0560136-1.3287296-1.4029654-.5327356-.3466927-1.1628975-.5202982-1.8946316-.5202982s-1.3681147.1736055-1.9132877.5202982c-.545173.3469518-.9949925.8146501-1.3473857,1.4029654-.3544661.5884448-.6177245,1.2542347-.7897753,1.9974994-.1741237.7433942-.2611855,1.5177523-.2611855,2.3228153Z"/>
      <path class="cls-1" d="m75.604923,47.1964608v.6503727l-1.7640389.2229664-.0373122,7.2843041c0,1.3377986-.1989985,2.4249057-.5949226,3.2610622-.3959241.8362861-.9473158,1.4494761-1.6541751,1.8396998-.7047864.3902236-1.529801.5853355-2.4708982.5853355-.9535345,0-1.7972053-.1857838-2.5268665-.5574808-.7317341-.3715675-1.2976361-.956903-1.6997789-1.7560064-.4042157-.7989738-.6052871-1.8303717-.6052871-3.0939345v-2.1555581c0-.9041736-.0020729-1.8117156-.0082916-2.7222374-.0062187-.9106514-.0165832-1.8179343-.0290206-2.722367l-1.7267266-.1857838v-.6503727h5.4620945v.6503727l-2.0998488.2229664c-.0124374.8796874-.0186561,1.7716827-.0186561,2.6758563v4.4411907c0,1.1645818.1430302,2.087541.4270176,2.7687481.2860604.6814662.6882032,1.1676911,1.2085014,1.4586746.5202982.2912426,1.1400956.4367344,1.8593923.4367344,1.237522,0,2.1578901-.3810251,2.7590314-1.1428163.6011413-.7619207.8996391-2.0533381.8996391-3.8745113l-.0165832-6.7266937-2.1931294-.2601491v-.6503727h4.8298596Z"/>
      <path class="cls-1" d="m86.8296827,57.2308569h.9286597l-.1305928,3.5120127h-10.3126831v-.6688993l1.9319439-.2044399c.0248748-.8794283.041458-1.7714236.0476767-2.6758563.0062187-.9041736.0082916-1.8086062.0082916-2.7130389v-1.0219403c0-.9041736-.0020729-1.8086062-.0082916-2.7130389-.0062187-.9041736-.0228019-1.8025171-.0476767-2.6945124l-1.9319439-.2043103v-.6503727h9.9416338l.1305928,3.4934862h-.9120765l-.5016421-2.6758563h-5.0723891c-.0248748.8796874-.0393851,1.7716827-.0456038,2.6758563-.0062187.9044327-.0103645,1.8334811-.0103645,2.7872747h3.2523819l.2777688-2.0068274h.7628276v4.7012102h-.7628276l-.2591126-1.9511182h-3.271038c0,1.0284181.0041458,2.006957.0103645,2.9360053.0062187.9291779.020729,1.846048.0456038,2.7502216h5.4455113l.482986-2.6758563Z"/>
      <path class="cls-1" d="m93.4816224,52.8640316l.7980669.2973318c.9162223.3715675,1.6479564.7496129,2.1931294,1.1334883.545173.3841345.9348784.8176299,1.1711891,1.3007455.2342378.4831155.3523932,1.0345072.3523932,1.6537864,0,.7930142-.2052172,1.4712416-.6135787,2.0348116-.4083615.5638291-.9659719.9973246-1.6728312,1.3007455-.7047864.3034209-1.5111449.4552609-2.4149298.4552609-.7566089,0-1.4779785-.1085682-2.1641088-.3251864-.6882032-.2166182-1.2541052-.4674392-1.6997789-.7525927l.0912076-2.7872747h.9493887l.4456737,2.4527603c.3586119.1983507.7110051.3438425,1.0592525.4367344.3461745.0928919.754536.1394026,1.2250846.1394026,1.0157216,0,1.8345175-.2229664,2.4543149-.6690288.6177245-.4459329.9286597-1.1023947.9286597-1.9696447,0-.6690288-.2114359-1.2047442-.6322348-1.6074053-.4207989-.4024019-1.1152208-.7958645-2.0811927-1.179999l-.7628276-.2973318c-1.0405964-.4209285-1.865611-.9412267-2.4791898-1.5608946-.6135787-.6192792-.9203681-1.4183826-.9203681-2.397051,0-.7680099.1948527-1.4244717.5845581-1.9697743.3917783-.5449139.9182952-.9598828,1.5795507-1.2450362.6633284-.2847648,1.4033541-.4274063,2.22215-.4274063.692349,0,1.299709.0961308,1.8200072.2881333.5202982.192132,1.0032841.4491718,1.4489579.7711192l-.0932806,2.6014909h-.984628l-.4456737-2.3599979c-.27155-.1732168-.5513917-.2940928-.8353792-.3622395-.2860604-.0680171-.6011413-.1022199-.9473158-.1022199-.8436708,0-1.5422384.2014601-2.0998488.603862-.5576104.4027906-.8374521,1.0066526-.8374521,1.8118451,0,.6813367.2072901,1.2357082.6239432,1.6631145.4145802.4274063.9929196.7835566,1.7370911,1.068451Z"/>
      <path class="cls-1" d="m109.1651924,48.0140907h-3.4016308c-.0248748.8796874-.0393851,1.7745329-.0456038,2.6850547s-.0103645,1.8303717-.0103645,2.7595496v1.0219403c0,.8919953.0041458,1.7903388.0103645,2.6945124.0062187.9044327.020729,1.8023875.0456038,2.6943828l2.1371611.2044399v.6688993h-5.9284972v-.6688993l2.1558172-.2044399c.0124374-.8794283.0228019-1.7714236.0290206-2.6758563.0062187-.9041736.0082916-1.8086062.0082916-2.7130389v-1.0219403c0-.9167405-.0020729-1.8303717-.0082916-2.7408935s-.0165832-1.8118451-.0290206-2.7037109h-3.3995579l-.5202982,2.7129094h-.9307326l.1492489-3.5305393h11.0008863l.1865611,3.5305393h-.9286597l-.5202982-2.7129094Z"/>
    </g>
  </g>
</svg>