<?xml version="1.0" encoding="UTF-8"?>
<svg id="_レイヤー_2" data-name="レイヤー 2" xmlns="http://www.w3.org/2000/svg" viewBox="0 0 211.9492188 127.368103">
  <defs>
    <style>
      .cls-1 {
        fill: #040000;
      }

      .cls-2 {
        fill: #231815;
      }
    </style>
  </defs>
  <g id="_レイヤー_1-2" data-name="レイヤー 1">
    <g>
      <path class="cls-2" d="m3.222168,110.6281128l.2875977-.3960571c.0839844-.0958862.15625-.1858521.2163086-.2699585.0595703-.0838013.1259766-.1260376.1977539-.1260376.0478516,0,.1381836.0512085.2700195.1530151.1318359.1021118.2729492.2280884.4233398.3779907.1499023.1502075.2758789.2941895.3779297.4320068.1015625.1381226.152832.243042.152832.3150024-.0717773.0720215-.1801758.1290894-.3242188.1710205-.1435547.0421753-.3056641.0750732-.4858398.098999-.2402344.539978-.5488281,1.2149658-.9267578,2.0249634s-.7651367,1.6171875-1.1611328,2.4210205h1.512207l.2875977-.34198c.0839844-.0959473.1591797-.1799927.2250977-.2520142s.1352539-.1079712.2070312-.1079712c.0722656,0,.2041016.0750732.3959961.2249756.1918945.1502075.3720703.3121948.5400391.4860229.1679688.1740723.2519531.309082.2519531.4049683-.1079102.1322021-.3237305.2160034-.6479492.2520142-.1079102.9121094-.2641602,1.8120728-.4677734,2.7000122-.2045898.8881836-.4985352,1.7341919-.8823242,2.5379639.5517578.6600952,1.190918,1.1610107,1.9169922,1.5029907.7260742.342041,1.5688477.5731812,2.5292969.6929932.9594727.1201172,2.0517578.1800537,3.2758789.1800537h2.3217773c.4560547,0,.894043-.0028076,1.3139648-.0090332.4199219-.0059204.7802734-.0148926,1.0800781-.0269775v.2520142c-.2280273.0477905-.4082031.1529541-.5400391.3150024-.1318359.1619873-.2041016.362793-.2158203.6029663h-4.0498047c-1.2724609,0-2.4033203-.078186-3.3930664-.2340088-.9902344-.1560669-1.8540039-.4440918-2.5922852-.8640137-.737793-.4198608-1.3833008-1.0318604-1.9350586-1.8359985-.3598633.6362305-.7978516,1.236145-1.3139648,1.8000488s-1.1459961,1.0737915-1.8896484,1.5299683l-.1621094-.2700195c.671875-.539978,1.2329102-1.145813,1.6831055-1.8179932.449707-.671875.8305664-1.3919067,1.1425781-2.1599731-.3837891-.7318115-.7319336-1.6380005-1.0439453-2.7180176-.144043.2761841-.3056641.5791016-.4858398.9089966-.1801758.3302002-.3300781.6030273-.4501953.8190308.0961914.1439819.090332.2821045-.0175781.4140015l-.8461914-.8460083c.2275391-.2278442.5068359-.5158081.8369141-.8640137.3300781-.3479004.6088867-.6539307.8369141-.9179688l.1801758-.7920532.6118164.197998-.4677734.7020264c.144043.4921875.3061523.9481201.4858398,1.367981.1801758.4202271.3720703.8041382.5761719,1.1520386.2275391-.6958008.4047852-1.4219971.5307617-2.1780396.1259766-.7559814.2250977-1.5178833.2973633-2.2859497h-1.8901367c-.0839844.1681519-.1650391.3301392-.2431641.4859619-.078125.1561279-.1591797.3121948-.2426758.4680176-.1323242.0360107-.2822266.0480957-.4501953.0360107-.168457-.0118408-.3598633-.0658569-.5761719-.1620483.3120117-.6358643.6328125-1.3139648.9628906-2.0339966.3300781-.7199707.6450195-1.4248047.9453125-2.1149902.2998047-.6898804.5639648-1.3109131.7919922-1.8629761h-.972168c-.2998047.012085-.5913086.0390625-.8730469.0809937-.2817383.0421753-.5668945.098999-.8549805.1710205l-.4677734-.9360352c.3598633.0480957.7197266.0809937,1.0800781.098999.3598633.0180054.7197266.0332031,1.0795898.0450439h1.0444336Zm9.5576172.4499512l.2700195-.4140015c.0839844-.0958862.1557617-.1889648.2163086-.2789917.0595703-.0899658.1259766-.1350098.1977539-.1350098.0478516,0,.1411133.0480957.2792969.144043.1376953.0961914.284668.2131958.440918.3509521.1557617.1381226.2880859.2731323.3959961.4050293.1079102.1322021.1621094.2340088.1621094.3059692-.1323242.144043-.3725586.2582397-.7202148.342041v1.6380005h.2700195l.3061523-.5040283c.0834961-.119812.1586914-.2340088.2246094-.34198.065918-.1080322.1352539-.1619873.2070312-.1619873.0600586,0,.1533203.0511475.2792969.1529541.1259766.1021118.2636719.2250366.4140625.3690186.1499023.1439819.2758789.2821045.3779297.4140015.1015625.1322021.152832.2340088.152832.3060303-.0478516.1920776-.1918945.2879639-.4321289.2879639h-1.7998047v.8640137c.0117188.4320068.0239258.7531738.0361328.9630127.0117188.210083.0297852.4350586.0537109.6749878-.0478516.1079712-.1831055.2160034-.4047852.3239746-.222168.1080322-.4291992.1620483-.6210938.1620483h-.1259766v-.5760498h-2.5742188v1.8540039h2.5380859l.3242188-.4859619c.0957031-.119812.1767578-.230896.2426758-.3330078.065918-.1018066.1352539-.1530151.2070312-.1530151.0600586,0,.1591797.0512085.2973633.1530151.1376953.1021118.2880859.222168.449707.3599854.1621094.1381226.2998047.2731323.4140625.4050293.1137695.1321411.1708984.2340088.1708984.3059692-.0117188.0961914-.0629883.1682129-.152832.2160034-.0898438.0480957-.1889648.0720215-.296875.0720215h-4.1943359v1.8900146h3.078125l.3598633-.5220337c.0961914-.131897.1860352-.2548218.2700195-.3690186.0839844-.1138916.1621094-.1709595.234375-.1709595.0478516,0,.1499023.0539551.3056641.1619873.1557617.1079712.3212891.2370605.4951172.3870239.1738281.1501465.3242188.2941284.4501953.4319458.1259766.1381226.1889648.243042.1889648.3150024-.0483398.1921387-.1982422.2880249-.4501953.2880249h-4.9321289v.684021c.012207.3360596.0239258.5880737.0361328.7559814.0117188.1682129.0239258.34198.0361328.5219727-.0361328.1322021-.1503906.2460938-.3422852.342041-.1918945.0961914-.3959961.1439819-.6118164.1439819-.1201172,0-.2041016-.0360107-.2519531-.1079712-.0478516-.0720215-.0717773-.1558228-.0717773-.2520142.0239258-.2039185.0415039-.3870239.0537109-.5490112.0117188-.1619873.0239258-.3988037.0361328-.7109985v-.8280029h-1.4399414c-.4682617.012085-.9243164.0390625-1.3681641.0809937-.4438477.0421753-.8881836.098999-1.3320312.1710205l-.449707-.9180298c.3959961.0480957.7919922.0809937,1.1879883.098999s.7978516.0332031,1.2055664.0450439h2.1962891v-1.8900146h-1.2060547c-.3842773.012085-.7592773.0390625-1.125.0809937-.3662109.0421753-.7353516.098999-1.1069336.1710205l-.4682617-.9360352c.3959961.0480957.7919922.0809937,1.1879883.098999s.7983398.0332031,1.2060547.0449829h1.512207v-1.8540039h-1.1342773c-.3598633.012146-.7080078.0391235-1.0439453.0810547-.3359375.0421753-.671875.098999-1.0078125.1709595l-.4858398-.9179688c.3959961.0480957.7919922.0809937,1.1879883.098999s.7978516.0331421,1.2060547.0449829h1.277832v-1.8900146h-1.7099609c-.4682617.012085-.9213867.0391235-1.3588867.0809937-.4384766.0422363-.8852539.098999-1.3413086.1710205l-.4677734-.9179688c.3959961.0480347.7919922.0809937,1.1879883.098999.3959961.0179443.7978516.0331421,1.2060547.0449829h2.4838867v-1.8540039h-1.1342773c-.3359375.012085-.671875.0390625-1.0078125.0809937-.3359375.0421753-.6723633.098999-1.0078125.1710205l-.4682617-.9000244c.3959961.0480957.7919922.0809937,1.1879883.098999s.7978516.0332031,1.2060547.0449829h1.2241211c0-.3358154-.0092773-.6867676-.0268555-1.0529785-.0180664-.3659058-.0512695-.6868286-.0991211-.9630127.6235352.1799927,1.0585938.3270874,1.3046875.44104.2460938.1141357.3720703.210083.378418.2879639.0058594.078186-.0390625.1530151-.1352539.2250366l-.3061523.2159424v.8460083h2.394043Zm.1801758.5040283h-2.5742188v1.8540039h2.5742188v-1.8540039Zm-2.5742188,4.2659912h2.5742188v-1.8900146h-2.5742188v1.8900146Z"/>
      <path class="cls-2" d="m24.4438477,111.1320801l.3061523-.4680176c.0839844-.119812.1621094-.230896.2338867-.3330078.0722656-.1018066.144043-.1529541.2163086-.1529541.0473633,0,.140625.0480957.2788086.1439819.1376953.0961914.2788086.2131958.4228516.3510132.144043.1380615.2700195.2700195.3779297.3959961.1083984.1259766.1621094.2249756.1621094.2969971-.0361328.1799927-.1860352.2700195-.449707.2700195h-3.4023438c.4199219.2640991.6899414.539978.8100586.8280029.1201172.2879639.144043.539978.0722656.7559814-.0722656.2160034-.2011719.3540649-.387207.4140015-.1860352.0601807-.3808594-.0059204-.5849609-.197998-.012207-.2880249-.0751953-.5968018-.1889648-.927002-.1142578-.329895-.2490234-.6210327-.4052734-.8729858h-1.0258789c-.3842773.5160522-.8007812.9781494-1.2509766,1.3859863-.449707.4080811-.9091797.750061-1.3769531,1.026001l-.1977539-.2340088c.1914062-.1679077.3803711-.362793.5668945-.585022.1855469-.2218628.3686523-.4589844.5488281-.7109985.2280273-.3239746.4560547-.6989136.684082-1.125.2275391-.4257812.4257812-.8549805.59375-1.2869873s.2822266-.815918.3422852-1.1519775c.5756836.2761841.9780273.4859619,1.2060547.6300049.2275391.1439819.3447266.2460938.3510742.3059692.0058594.0601807-.0512695.1021118-.1713867.1260376l-.3237305.0719604c-.0961914.1799927-.1953125.3571777-.296875.5310059-.1025391.1740723-.2133789.3450928-.3330078.5130005h3.2216797Zm7.0742188,9.5579834l.3598633-.4859619c.0957031-.119812.1860352-.2340088.2700195-.342041.0839844-.1079712.1621094-.1619873.2338867-.1619873.0600586,0,.1650391.0512085.3149414.1530151.1499023.1021118.3154297.222168.4951172.3599854.1801758.1381226.3330078.2731323.4589844.4050293.1259766.1321411.1889648.2340088.1889648.3059692-.0356445.1920776-.1918945.2880249-.4677734.2880249h-6.1201172c.5517578.4561768,1.2089844.8701782,1.9711914,1.2420044.7617188.3720703,1.565918.6870728,2.4116211.9450073.8461914.2581787,1.6772461.453064,2.4931641.5849609l-.0361328.197998c-.2280273.0480957-.4316406.164856-.6118164.3510132-.1801758.1859131-.300293.4108887-.3598633.6749878-1.2602539-.3481445-2.4633789-.861145-3.609375-1.5390015-1.1459961-.6777954-2.0908203-1.4968262-2.8349609-2.4569702h-.0537109v1.367981c.0117188.4561768.0239258.8251953.0361328,1.1069946.0117188.2821045.0234375.5341187.0356445.7559814.0117188.2219238.0239258.4708252.0361328.7470093-.0600586.119812-.1953125.230957-.4047852.3330078-.2104492.1018066-.4233398.1530151-.6391602.1530151-.1079102,0-.1923828-.0360107-.2519531-.1080322-.0605469-.0719604-.090332-.1560669-.090332-.2519531.0239258-.2640991.0419922-.4981079.0541992-.7020264.0117188-.2041626.0239258-.4320068.0361328-.684021.0117188-.2519531.0239258-.5697632.0356445-.9539795v-1.367981c-.8759766.8881836-1.940918,1.6469727-3.1948242,2.2769775s-2.6191406,1.1309204-4.0947266,1.5029907l-.1259766-.3059692c1.2597656-.4440918,2.4267578-.9959106,3.5009766-1.6560059,1.0737305-.65979,1.9707031-1.3978271,2.690918-2.2139893h-2.8803711c-.4677734.012085-.9238281.0390625-1.3676758.0809937-.4443359.0421753-.8881836.098999-1.3320312.1710205l-.4858398-.9180298c.3959961.0480957.7919922.0809937,1.1879883.098999s.7978516.0332031,1.2055664.0449829h4.8959961c0-.2998047-.0087891-.6119995-.0268555-.9359741-.0180664-.3240356-.0449219-.6119995-.0810547-.8640137.6000977.1799927,1.0200195.3240356,1.2602539.4320068.2397461.1079712.3686523.197998.3867188.2700195.0180664.0719604-.0209961.1439819-.1166992.2160034l-.2700195.1799927v.7019653h4.8959961Zm-8.40625-6.2639771l.3061523-.4320068c.0839844-.1079712.1621094-.2097778.2338867-.3059692.0722656-.0959473.144043-.144043.2163086-.144043.0478516,0,.140625.0450439.2788086.1350098.1376953.0900269.2817383.197998.4321289.3240356.1499023.1259766.2788086.2491455.3867188.3689575.1079102.1201172.1621094.2160034.1621094.2880249-.0478516.1920776-.1977539.2879639-.4501953.2879639h-2.3217773v2.6640015c.4077148-.0719604.824707-.1499023,1.2509766-.2339478.4257812-.0838623.8549805-.1679077,1.2871094-.2520142l.0717773.2879639c-.6362305.2280884-1.4101562.5012207-2.3217773.8190308-.9121094.3180542-1.9863281.6749878-3.222168,1.0709839-.0600586.2280884-.1860352.3599854-.3779297.3959961l-.737793-1.367981c.3115234-.0477905.7226562-.1138916,1.2329102-.197998.5097656-.0838013,1.0825195-.1859131,1.71875-.3060303v-2.8800049h-.7739258c-.2402344.012146-.4711914.0391235-.6928711.0810547-.222168.0421753-.4472656.098999-.675293.1709595l-.449707-.9179688c.3959961.0480957.7919922.0809937,1.1879883.098999s.7978516.0331421,1.2060547.0449829h2.0517578Zm7.0561523-.4500122l.2700195-.3779907c.0839844-.0838013.1557617-.1679077.2158203-.2520142.0600586-.0838013.1259766-.1259766.1982422-.1259766.0717773,0,.1977539.0809937.3779297.242981s.3447266.3361206.4951172.5220337c.1499023.1861572.2250977.3270874.2250977.4229736-.1201172.1201172-.3125.2041626-.5761719.2520142v3.2399902c0,.0961914.0146484.1591797.0449219.1890259.0297852.0300903.1108398.0449829.2431641.0449829h1.0078125c.1079102,0,.1860352-.0059204.2338867-.0180054.0961914,0,.1738281-.0477905.234375-.1439819.0356445-.1080322.0927734-.3209229.1708984-.6390381.0776367-.3178101.152832-.6569824.2250977-1.0169678h.1977539l.0541992,1.6740112c.1557617.0719604.2578125.1411743.3056641.2069702.0478516.0661011.0722656.1530151.0722656.2609863,0,.2280884-.1293945.3991089-.387207.5130005-.2583008.1141968-.7529297.1710205-1.4848633.1710205h-.8818359c-.456543,0-.7504883-.0748291-.8823242-.2249756-.1318359-.1499634-.1977539-.4050293-.1977539-.7650146v-3.6359863h-3.4199219v1.1699829c0,.3720703-.0424805.7559814-.1259766,1.1519775-.0844727.3959961-.2612305.78302-.53125,1.1610107s-.6782227.7321167-1.2241211,1.0620117c-.5458984.3302002-1.2749023.6150513-2.1870117.8549805l-.144043-.2700195c.8881836-.3479004,1.5571289-.7318115,2.0073242-1.1519775.449707-.4199219.7529297-.8640137.9086914-1.3319702.15625-.4680176.234375-.9540405.234375-1.4580078v-1.1700439c0-.2038574-.0063477-.4140015-.0180664-.6299438-.012207-.2160034-.0302734-.4199219-.0541992-.6119995l1.3500977.68396h3.0419922Zm1.5839844-2.8439941l.3417969-.5039673c.0839844-.119812.1650391-.2368164.2431641-.3510132.078125-.1138916.152832-.1710205.2250977-.1710205.0600586,0,.1621094.0512085.3061523.1530151.144043.1021118.3027344.2280884.4765625.3779907.1738281.1502075.3212891.2910767.4414062.4229736.1196289.1322021.1796875.2340088.1796875.3060303-.0600586.1799927-.2099609.2700195-.449707.2700195h-3.8701172c.4438477.2519531.7407227.5219727.8911133.8099976.1499023.2879639.1918945.5430908.1259766.7649536-.0664062.222229-.1923828.3690186-.3779297.44104-.1865234.0719604-.3935547.0180054-.6210938-.1619873-.0361328-.2998657-.1411133-.6210327-.3149414-.9630127-.1743164-.342041-.3574219-.6390381-.5493164-.8909912h-1.2597656c-.3359375.3959961-.6811523.7559814-1.0351562,1.0799561-.3540039.3240356-.7172852.6002197-1.0888672.8280029l-.2158203-.2340088c.1196289-.131897.2426758-.2699585.3686523-.4140015.1259766-.1439819.2490234-.2998047.3691406-.4679565.2397461-.3119507.4707031-.6778564.6928711-1.0980225.222168-.4199219.4169922-.8397827.5849609-1.2600098.1679688-.4198608.2880859-.7979126.3603516-1.1339722.5756836.2520142.9775391.4472046,1.2055664.5849609.2280273.1381226.3422852.2371216.3422852.2970581,0,.0601807-.0541992.1079712-.1621094.1439819l-.3237305.0899658c-.2163086.3842163-.4501953.7442017-.7021484,1.0800171h3.815918Zm-4.6259766,4.4459839l.1621094-.1619873c.671875.1201172,1.190918.2910767,1.5566406.5130005.3662109.222168.6181641.4561768.7563477.7020264.1376953.2460938.1860352.4679565.144043.6659546-.0424805.197998-.144043.3302002-.3061523.3959961-.1621094.0661011-.3510742.0332031-.5668945-.098999-.1079102-.3599854-.3364258-.7318115-.684082-1.1159668-.3481445-.3839111-.7021484-.684021-1.0620117-.9000244Z"/>
      <path class="cls-2" d="m49.5361328,119.4121094l.3959961-.5580444c.1079102-.1439819.2036133-.2758789.2875977-.3959961.0839844-.119812.1621094-.1799927.234375-.1799927.0595703,0,.1708984.0571289.3330078.1710205.1616211.1141968.3354492.2520142.5219727.4140015.1855469.1619873.3476562.3150024.4858398.4589844.1376953.1439819.2070312.2520142.2070312.3239746-.0478516.1921387-.1977539.2880249-.4501953.2880249h-6.371582c.527832.6361694,1.1757812,1.2150269,1.9438477,1.7369995.7675781.5219727,1.5898438.9750977,2.4658203,1.3590088.8759766.3841553,1.7397461.6721802,2.5922852.8640137l-.0361328.2160034c-.2280273.0480957-.4379883.1647949-.6298828.3509521-.1923828.1859131-.3183594.4289551-.3779297.7290039-1.3081055-.4801025-2.5292969-1.1668701-3.6630859-2.0609741-1.1342773-.8937988-2.0493164-1.9589233-2.7451172-3.1950073h-.1079102v1.7639771c.0117188.5881348.0239258,1.0682373.0361328,1.4400024.0117188.3721313.0234375.7081909.0356445,1.0079956.0117188.2998657.0297852.6300049.0541992.9900513-.0600586.119812-.2011719.230896-.4228516.3329468-.2226562.1018677-.4472656.1530151-.675293.1530151-.1079102,0-.1953125-.0390625-.2607422-.1170044-.0664062-.078186-.0991211-.1591797-.0991211-.242981.0239258-.3482056.0449219-.6600952.0629883-.9359741.0180664-.2759399.0327148-.585022.0449219-.927002.0117188-.342041.0239258-.7768555.0361328-1.3050537v-1.7639771c-.8525391,1.0800171-1.9082031,2.0371094-3.1679688,2.8710327-1.2602539.8341675-2.6459961,1.5147705-4.1582031,2.0429688l-.1621094-.2880249c1.2841797-.6001587,2.4599609-1.3409424,3.5283203-2.2229614,1.0678711-.882019,1.949707-1.8149414,2.6459961-2.7990112h-2.9521484c-.4677734.012085-.9208984.0391235-1.3588867.0809937-.4384766.0421753-.8852539.098999-1.3413086.1710205l-.449707-.9180298c.3959961.0480957.7919922.0809937,1.1879883.098999s.7978516.0332031,1.2060547.0450439h5.0219727c0-.4078369-.0151367-.8460083-.0449219-1.3140259-.0302734-.4680176-.0693359-.8699341-.1171875-1.2059937.6479492.1920776,1.1040039.34198,1.3681641.4500122.2636719.1079712.4018555.197998.4140625.2699585.0117188.0720215-.0302734.144043-.1264648.2160034l-.3056641.1799927v1.4040527h4.9140625Zm-2.9882812-8.5140381l.4140625-.4500122c.1079102-.1079712.2070312-.2097778.296875-.3059692.090332-.0958862.1713867-.1439819.2431641-.1439819.0600586,0,.1557617.0601807.2880859.1799927.1318359.1200562.2700195.2640991.4140625.4320068.144043.1681519.2700195.3270874.3779297.4769897.1079102.1501465.1621094.2609863.1621094.3330078-.0722656.0719604-.1621094.1231689-.2700195.1529541-.1083984.0300903-.2822266.0512085-.5219727.0630493-.3842773.6001587-.8164062,1.1581421-1.2963867,1.6739502-.4799805.5161133-1.0078125.9962158-1.5839844,1.4400024.9599609.5040283,2.03125.906189,3.2133789,1.2059937,1.1816406.3001099,2.4145508.5220337,3.6987305.6660156v.197998c-.5283203.1080322-.8701172.4680176-1.0258789,1.0800171-1.3320312-.2399292-2.5649414-.5639038-3.6992188-.9719849-1.1337891-.4078369-2.1450195-.9298096-3.0327148-1.56604-1.0561523.696106-2.2441406,1.2870483-3.5639648,1.7730103-1.3203125.4860229-2.7719727.8612061-4.355957,1.125l-.1083984-.3059692c1.3920898-.3479004,2.6972656-.7919922,3.9150391-1.3320312,1.2177734-.539978,2.3188477-1.1759033,3.3032227-1.907959-.8164062-.684021-1.4941406-1.5179443-2.0341797-2.5020142-.6362305.6361694-1.3349609,1.2329712-2.0966797,1.7910156-.762207.5579834-1.5454102,1.0231323-2.3491211,1.3949585l-.1801758-.2520142c.6000977-.3717651,1.190918-.8217773,1.7729492-1.3499756.5820312-.5278931,1.1191406-1.0917969,1.6113281-1.6920166.3837891-.4558716.7436523-.980957,1.0795898-1.5749512.3359375-.5940552.5698242-1.1309204.7021484-1.6110229.659668.2520142,1.1220703.4440918,1.3862305.5759888.2636719.1322021.4018555.2280884.4140625.2880249.0117188.0601807-.0361328.0961914-.144043.1079712l-.3061523.0360107c-.1079102.1560669-.222168.3181152-.3417969.4860229-.1201172.1681519-.2460938.3301392-.378418.4859619h3.9960938Zm-.0898438.5400391h-4.355957c-.0722656.0840454-.144043.1650391-.2163086.242981-.0717773.078186-.1435547.1530151-.2158203.2249756.2998047.4440918.6538086.8580933,1.0620117,1.2420044.4077148.3842163.8520508.7321167,1.3320312,1.0440063.972168-.815918,1.7700195-1.7338867,2.394043-2.7539673Z"/>
      <path class="cls-2" d="m56.4121094,115.5061035c-.3364258.539978-.684082,1.0470581-1.0439453,1.5209961-.3603516.4741821-.7324219.9089966-1.1162109,1.3049927l-.2338867-.1799927c.4677734-.684021.9296875-1.4788208,1.3857422-2.3850098.4560547-.9058838.8823242-1.8748169,1.2783203-2.9069824.1318359-.3718262.2666016-.7948608.4047852-1.269043.1376953-.473877.2578125-.9387817.3598633-1.3949585.1020508-.4559326.1650391-.8519287.1889648-1.1880493.6601562.2402344,1.1220703.4230347,1.3862305.5490112.2636719.1260376.3989258.222229.4047852.2880249.0063477.0661011-.0449219.1231689-.152832.1710205l-.3417969.1079712c-.2280273.6600952-.4770508,1.3049927-.7470703,1.9349976s-.5551758,1.2391968-.8549805,1.8270264c.3598633.2879639.5581055.4921875.59375.6119995.0361328.1200562-.0117188.210083-.144043.2699585l-.2519531.1080322v6.0299683c.0117188.7200317.0239258,1.3081055.0361328,1.7640381.0117188.4561768.0268555.8670654.0449219,1.2329712s.0390625.7767944.0629883,1.2330322c-.0717773.0958862-.2099609.2008057-.4140625.3150024-.2041016.1138916-.4140625.1709595-.6298828.1709595-.1079102,0-.2041016-.0390625-.2880859-.1170044-.0839844-.078186-.1259766-.1591797-.1259766-.242981.0239258-.3842163.0478516-.7379761.0722656-1.0620117.0239258-.3239746.0415039-.6508179.0537109-.9810181.0117188-.329895.0239258-.7047729.0361328-1.125.0117188-.4198608.0239258-.9238892.0361328-1.5119629v-5.0759888Zm10.9619141-2.1780396l.3779297-.539978c.0957031-.131897.1860352-.2548218.2700195-.3690186.0839844-.1138916.1621094-.1709595.2338867-.1709595.0478516,0,.1469727.0539551.296875.1619873.1499023.1079712.3120117.2401733.4863281.3959961.1738281.1560669.3208008.3031616.440918.440979.1196289.1381226.1801758.243042.1801758.3150024-.0361328.1920776-.1865234.2880249-.4501953.2880249h-4.355957v4.3919678h2.987793l.3603516-.539978c.0957031-.131897.1855469-.2548218.2700195-.3690186.0834961-.1138916.1616211-.1709595.2338867-.1709595.0600586,0,.1645508.0539551.3149414.1619873.1499023.1079712.3120117.2401733.4858398.3959961.1738281.1560669.3242188.3059692.4501953.4500122.1259766.1439819.1889648.2519531.1889648.3239746-.0361328.1920776-.1860352.2880249-.4501953.2880249h-4.8417969v2.1419678c.0117188.7081909.0239258,1.2869873.0361328,1.7369995.0117188.4500122.0268555.8550415.0449219,1.2150269s.0385742.7619019.0629883,1.2059937c-.0722656.131897-.2163086.2520142-.4321289.3599854-.2158203.1080322-.4262695.1619873-.6298828.1619873-.1201172,0-.222168-.0360107-.3061523-.1079712-.0839844-.0720215-.1259766-.1561279-.1259766-.2520142.0239258-.4561768.0478516-.8701782.0722656-1.2420044.0239258-.3718262.0449219-.7799072.0629883-1.223999.0175781-.4437866.0327148-1.013916.0449219-1.710022v-2.2859497h-2.2861328c-.4677734.012085-.9243164.0390625-1.3681641.0809937-.4438477.0421753-.8881836.098999-1.3320312.1709595l-.449707-.9359741c.3959961.0480957.7919922.0809937,1.1879883.098999s.7978516.0332031,1.2060547.0449829h3.0419922v-4.3919678h-2.8442383c-.3237305.696106-.6748047,1.3410034-1.0527344,1.9349976s-.7895508,1.1190796-1.2329102,1.5750122l-.2163086-.1800537c.5400391-.9359741,1.0258789-2.039856,1.4580078-3.3119507.1201172-.3839111.2368164-.815918.3510742-1.2960205.1137695-.4797974.2041016-.9539795.2700195-1.4219971s.0991211-.8640137.0991211-1.1879883c.671875.2041626,1.1396484.3689575,1.4038086.4949951.2636719.1259766.4018555.222168.4140625.2879639.0117188.0661011-.0419922.1170044-.1621094.1530151l-.3237305.1260376c-.1083984.3959961-.2250977.7860718-.3510742,1.1699829-.1259766.3841553-.2734375.762207-.440918,1.1339722h2.6279297v-.3779907c0-.6119995-.0180664-1.256897-.0541992-1.9349976-.0361328-.6777954-.0961914-1.2628174-.1796875-1.7550049.671875.1920776,1.1425781.3450928,1.4125977.4589844.2700195.1141968.4111328.210144.4233398.2880249.0117188.078186-.0302734.1470947-.1259766.2070312l-.3061523.197998v2.9159546h2.5200195Z"/>
      <path class="cls-2" d="m74.5019531,115.6320801c-.7080078,1.104187-1.4643555,2.0581665-2.2680664,2.8619995l-.2338867-.1799927c.4916992-.7078857.980957-1.5300293,1.4667969-2.4660034.4863281-.9359741.9331055-1.9318848,1.3413086-2.9879761.144043-.3718262.2880859-.7948608.4316406-1.269043.144043-.473877.2670898-.9387817.3691406-1.3949585.1020508-.4559326.1650391-.8519287.1889648-1.1880493.671875.2160034,1.1430664.3870239,1.4130859.5130005.2700195.1260376.4111328.222229.4228516.2880249.012207.0661011-.0419922.1170044-.1616211.1530151l-.3242188.1259766c-.2402344.696106-.5068359,1.380127-.8007812,2.052002-.2944336.6721802-.609375,1.3201904-.9453125,1.9440308.3720703.2879639.5761719.4921875.6123047.6119995.0356445.1200562-.012207.2041626-.144043.2519531l-.2519531.1080322v5.8499756c.0117188.7200317.0239258,1.3081055.0356445,1.7640381.012207.4561768.0273438.8670654.0449219,1.2329712.0180664.3659058.0390625.7767944.0634766,1.2330322-.0844727.0958862-.2314453.2008057-.4414062.3150024-.2099609.1138916-.4169922.1709595-.6206055.1709595-.0961914,0-.1865234-.0390625-.2700195-.1170044-.0844727-.078186-.1259766-.1591797-.1259766-.242981.0234375-.3842163.0473633-.7379761.0717773-1.0620117.0239258-.3239746.0419922-.6508179.0541992-.9810181.0117188-.329895.0239258-.7047729.0356445-1.125.0117188-.4198608.0239258-.9238892.0361328-1.5119629v-4.9500122Zm10.512207-1.8540039h.8818359l.3598633-.539978c.0961914-.131897.1831055-.2548218.2612305-.3690186.0776367-.1138916.152832-.1710205.2250977-.1710205.0595703,0,.1616211.0540161.3056641.1620483.144043.1079712.296875.2401733.4589844.3959961.1621094.1560669.3032227.3059692.4233398.4499512.1196289.144043.1796875.2520142.1796875.3240356-.0361328.1920776-.1860352.2880249-.449707.2880249h-2.6459961v9.3959961c0,.3360596-.0483398.6328125-.144043.8909912-.0961914.2578735-.300293.4707642-.6123047.6389771-.3120117.1679077-.7978516.2880249-1.4580078.3599854-.0478516-.2041626-.1108398-.3841553-.1889648-.539978-.078125-.1560669-.1948242-.2821045-.3510742-.3779907-.3359375-.2042236-1.0200195-.3842163-2.0517578-.5400391v-.2879639c.5400391.0480957.9926758.0841064,1.3588867.1079712.3662109.024231.7167969.0480957,1.0532227.0720215.3354492.0241699.5639648.0360107.684082.0360107.2036133,0,.3388672-.0388184.4047852-.1170044.065918-.0779419.0991211-.2008057.0991211-.3690186v-9.2699585h-3.9780273c-.4682617.012085-.9243164.0390625-1.3681641.0809937-.4438477.0421753-.8881836.098999-1.3320312.1709595l-.449707-.9359741c.3959961.0480957.7919922.0809937,1.1879883.098999s.7978516.0332031,1.2055664.0449829h4.734375v-.8099976c0-.6119995-.0180664-1.256897-.0541992-1.9349976-.0361328-.6777954-.0961914-1.2628174-.1801758-1.7550049.684082.1920776,1.1611328.3450928,1.4311523.4589844.2700195.1141968.4140625.2070312.4321289.2790527.0180664.0719604-.0268555.1439819-.1352539.2159424l-.2875977.1800537v3.3659668Zm-7.0922852,2.5020142l.1982422-.1259766c.8637695.4921875,1.5356445.9871826,2.015625,1.4849854.4799805.4981079.8071289.960144.9814453,1.3859863.1738281.4260864.2397461.7860718.1977539,1.0800171-.0419922.2941895-.1621094.4831543-.3598633.5669556-.1982422.0841064-.4233398.024231-.675293-.1799927-.0961914-.4437866-.2729492-.9207764-.5307617-1.4309692-.2583008-.5099487-.5522461-1.0049438-.8818359-1.4849854-.3305664-.4798584-.6455078-.9118652-.9453125-1.2960205Z"/>
      <path class="cls-2" d="m102.527832,115.4160767l.3959961-.5579834c.1079102-.1439819.2041016-.2759399.2880859-.3959961.0839844-.119812.1621094-.1799927.2338867-.1799927.0600586,0,.1713867.0570679.3330078.1709595.1621094.1141968.3388672.2520142.53125.4140015.1918945.1620483.3569336.3181152.4951172.4680176.1376953.1502075.2070312.2609863.2070312.3330078-.0361328.1920776-.1923828.2879639-.4682617.2879639h-5.9038086v8.2620239h4.8237305l.4140625-.5759888c.1079102-.1439819.2070312-.2789917.296875-.4050293.090332-.1259766.1713867-.1889648.2431641-.1889648.0600586,0,.1708984.0601807.3330078.1799927.1621094.1201172.3417969.2609863.5400391.4229736.1977539.1620483.3657227.3181152.5039062.4680176.1376953.1499023.2070312.2609863.2070312.3330078-.0478516.1918335-.1977539.2880249-.4501953.2880249h-12.3837891c-.4677734.0117798-.9208984.0387573-1.3588867.0809937-.4384766.0418701-.8852539.098999-1.3413086.1709595l-.4677734-.9179688c.3959961.0480957.7919922.0809937,1.1879883.098999s.7978516.0332031,1.2060547.0449829h5.0581055v-8.2620239h-3.2402344c-.4677734.012146-.9208984.0391235-1.3588867.0810547-.4384766.0421753-.8852539.098999-1.3408203.1709595l-.4863281-.9359741c.3959961.0480957.7919922.0809937,1.1879883.098999s.7978516.0332031,1.2060547.0449829h4.0322266v-2.6459961c0-.6119995-.0180664-1.256897-.0541992-1.9349976-.0361328-.6777954-.0961914-1.2628174-.1801758-1.7550049.671875.1920776,1.1430664.3450928,1.4130859.4589844.2700195.1141968.4111328.210144.4233398.2880249.0117188.078186-.0302734.1530151-.1264648.2249756l-.2875977.197998v5.1660156h3.8876953Z"/>
      <path class="cls-2" d="m111.9960938,114.5880737l.3237305-.5219727c.0961914-.131897.1772461-.2520142.2431641-.3600464.065918-.1079712.1347656-.1619873.2070312-.1619873.0600586,0,.1557617.0540161.2880859.1619873.1318359.1080322.2758789.2371216.4316406.3870239.15625.1502075.2880859.2941895.3959961.4320068.1083984.1381226.1621094.242981.1621094.3150024-.0478516.1920776-.1918945.2880249-.4321289.2880249h-2.2138672v5.7059937c.4199219-.1918335.8461914-.3898315,1.2783203-.5939941.4316406-.2039185.8754883-.4078369,1.3320312-.6119995l.1079102.2519531c-.6123047.4081421-1.3413086.906189-2.1870117,1.4940186-.8461914.5880737-1.8212891,1.223999-2.925293,1.90802-.0600586.2401733-.1679688.4021606-.3237305.4859619l-.684082-1.5299683c.2397461-.0838013.5605469-.2039185.9628906-.3599854.4018555-.1558228.8491211-.342041,1.3413086-.5580444v-6.1919556h-.7021484c-.3720703.012085-.7558594.0961304-1.1518555.2519531l-.4501953-.9359741c.2636719.0480957.527832.0809937.7919922.098999.2636719.0180054.527832.0332031.7919922.0449829h.7202148v-1.4580078c0-.6119995-.0180664-1.256897-.0541992-1.9349976-.0361328-.6777954-.0961914-1.2628174-.1801758-1.7550049.6601562.1921387,1.1191406.342041,1.3769531.4500122.2583008.1080322.3930664.197998.4052734.2700195.0117188.0719604-.0361328.1439819-.144043.2160034l-.3061523.1799927v4.0319824h.5942383Zm9.7558594-1.6199951l.2700195-.3959961c.0717773-.0958862.1376953-.1890259.1977539-.2789917.0600586-.0900269.1264648-.1350098.1982422-.1350098.0600586,0,.152832.0480957.2788086.1439819.1259766.0961914.2641602.2131958.4140625.3510132.1499023.1381226.2758789.2700195.3779297.3959961.1020508.1260376.1533203.2250366.1533203.2969971-.1079102.144043-.3300781.2401733-.6660156.2880249-.0244141,1.5722046-.0629883,2.8439941-.1171875,3.815979-.0537109.9719849-.1381836,1.7131348-.2519531,2.2230225-.1142578.5101929-.2607422.8670654-.440918,1.0709839-.1801758.2041626-.3959961.3510132-.6479492.440979-.2519531.0900269-.5161133.1350098-.7919922.1350098,0-.1679077-.0092773-.3239746-.0273438-.4679565-.0175781-.144043-.074707-.263855-.1708984-.3600464-.0839844-.0719604-.2070312-.1378174-.3686523-.197998-.1621094-.0598755-.3393555-.1079712-.53125-.1439819v-.3239746c.1918945.012085.4199219.0300903.684082.0539551.2636719.024231.4677734.0360107.6118164.0360107.2041016,0,.3540039-.0540161.4501953-.1619873.1079102-.131897.1977539-.4258423.2700195-.882019.0717773-.4558716.1259766-1.1218872.1621094-1.9979858.0356445-.8757935.0654297-2.0098267.0898438-3.4019775l-2.6459961,1.0440063v3.1859741c.0117188.7199707.0239258,1.3081055.0361328,1.7639771.0117188.4561768.0268555.8671265.0449219,1.2330322.0180664.3661499.0385742.7770996.0629883,1.2329712-.0722656.1201172-.2099609.2401733-.4140625.3600464-.2041016.1200562-.4082031.1799927-.6118164.1799927-.0961914,0-.1831055-.0360107-.2612305-.1080322-.078125-.0719604-.1171875-.1558228-.1171875-.2520142.0239258-.3839111.0454102-.7348633.0629883-1.0529785.0180664-.3178101.0332031-.6448975.0454102-.9810181.0117188-.3358154.0239258-.7109985.0356445-1.125.012207-.4140015.0239258-.914856.0361328-1.5029907v-2.5200195l-2.3217773.9180298v7.3259888c0,.2761841.074707.4680176.2246094.5759888.1499023.1080322.5009766.1620483,1.0532227.1620483h2.5742188c.5996094,0,1.109375-.0059204,1.5297852-.0180054.4199219-.0118408.7260742-.0239258.9179688-.0360107.1318359-.0118408.230957-.0388184.296875-.0809937.065918-.0419312.1289062-.1049194.1889648-.1890259.0722656-.1679077.1650391-.4978027.2792969-.9899902.1137695-.4918823.2368164-1.0737915.3686523-1.7459717h.234375l.0356445,2.8079834c.2402344.0841064.3959961.1651001.4682617.242981.0717773.078186.1079102.1831055.1079102.3150024,0,.2160034-.1142578.3807983-.3417969.4949951-.2280273.1138916-.6601562.1949463-1.2963867.242981-.6357422.0478516-1.5776367.0720215-2.8256836.0720215h-2.6279297c-.8642578,0-1.4614258-.111084-1.7910156-.3330078-.3305664-.222168-.4951172-.6508179-.4951172-1.2869873v-7.1459961l-2.1420898.8460083-.3237305-.4320068,2.4658203-.9719849v-2.592041c0-.4437866-.0151367-.9089966-.0449219-1.3949585-.0302734-.4860229-.0693359-.9089966-.1171875-1.269043.6240234.1921387,1.0620117.3450928,1.3139648.4590454.2519531.1141968.3837891.210083.3959961.2879639.0117188.078186-.0356445.1530151-.144043.2250366l-.3056641.197998v3.6539917l2.3217773-.9000244v-2.6099854c0-.4320068-.0151367-.8937988-.0449219-1.3859863-.0302734-.4919434-.0693359-.9239502-.1171875-1.2960205.6123047.1920776,1.0410156.3450928,1.2871094.4589844.2460938.1141968.375.210144.387207.2880249.0117188.078186-.0361328.1530151-.144043.2249756l-.2880859.197998v3.6900024l2.3398438-.9179688.1621094-.0540161Z"/>
      <path class="cls-2" d="m129.6181641,127.368103l5.2197266-17.0280151h.9360352l-5.237793,17.0280151h-.9179688Z"/>
      <path class="cls-2" d="m149.7597656,110.1240845c-.4082031.6721802-.9179688,1.3562012-1.5302734,2.052002-.6118164.696106-1.2866211,1.3770142-2.0249023,2.0429688-.737793.6660156-1.5117188,1.2811279-2.3217773,1.8450317-.8100586.564209-1.6171875,1.0501709-2.4213867,1.4580078l-.1435547-.2520142c.659668-.3959961,1.331543-.8878784,2.015625-1.4760132.684082-.5877686,1.3500977-1.2177734,1.9980469-1.8899536.6479492-.671936,1.2241211-1.355957,1.7280273-2.052002.3598633-.4680176.6689453-.9630127.9272461-1.4850464.2578125-.5219727.4345703-1.0288086.5307617-1.5209961l2.25.7200317c-.0239258.1079712-.0932617.1861572-.2070312.2340088-.1142578.0480957-.2788086.0840454-.4951172.1079712.5161133.7802124,1.1669922,1.5209961,1.953125,2.2230225.7861328.7019653,1.6499023,1.347168,2.5922852,1.9349976.9418945.5880737,1.9228516,1.1100464,2.9428711,1.565979l-.0361328.2520142c-.2641602.0480957-.4951172.1651001-.6928711.3510132-.1982422.1861572-.3212891.3931885-.3691406.6209717-.9360352-.5278931-1.8359375-1.1430054-2.699707-1.8449707-.8642578-.7020264-1.6445312-1.4698486-2.340332-2.3040161-.6958008-.8339233-1.2480469-1.6948242-1.6557617-2.5830078Zm3.1499023,9.9539795l.3779297-.5039673c.1079102-.131897.2041016-.2520142.2880859-.3599854.0839844-.1080322.1621094-.1620483.2338867-.1620483.0600586,0,.1650391.0512085.3149414.1530151.1499023.1021118.3149414.2280884.4951172.3779907.1801758.1502075.3330078.2911377.4589844.4230347.1259766.1321411.1889648.2340088.1889648.3059692-.0478516.1799927-.2041016.2700195-.4677734.2700195h-4.9321289v3.8699951h4.6801758l.3959961-.5579834c.1079102-.144043.2070312-.2759399.296875-.3959961.0898438-.119812.1708984-.1800537.2426758-.1800537.0478516,0,.15625.0571289.3242188.1710205.1679688.1141968.3447266.2520142.53125.4140015.1855469.1619873.3476562.3150024.4858398.4589844.1376953.144043.2070312.2520142.2070312.3240356-.0483398.1799927-.2099609.2699585-.4863281.2699585h-11.6816406c-.4682617.0118408-.9213867.0388184-1.359375.0810547-.4379883.0418701-.8847656.098999-1.3408203.1709595l-.4858398-.8999634c.3959961.0477905.7919922.0809937,1.1879883.098999s.7978516.0328979,1.2060547.0449829h4.6259766v-3.8699951h-1.6381836c-.4677734.012085-.9208984.0390625-1.3588867.0809937-.4384766.0421753-.8852539.098999-1.3408203.1710205l-.4682617-.9000244c.3959961.0480957.7919922.0809937,1.1879883.098999s.7978516.0332031,1.2060547.0449829h2.4121094v-3.4199829h-1.421875c-.456543.012085-.9033203.0391235-1.3413086.0809937-.4379883.0421753-.8789062.098999-1.3227539.1710205l-.4321289-.9180298c.3959961.0480957.7919922.0809937,1.1879883.098999s.7978516.0332031,1.2060547.0450439h5.8139648l.3598633-.4860229c.0961914-.119812.1831055-.230896.2612305-.3330078.0776367-.1018066.152832-.1530151.2246094-.1530151.0600586,0,.1621094.0480957.3061523.144043.144043.0961914.3032227.2131958.4770508.3509521.1738281.1381226.3208008.2731323.440918.4050293.1201172.1322021.1801758.2340088.1801758.3059692-.012207.0961914-.0629883.1682129-.152832.2160034-.090332.0480957-.1894531.0720215-.2973633.0720215h-4.3198242v3.4199829h3.0419922Z"/>
      <path class="cls-2" d="m163.7817383,111.1140747h7.8657227v.8280029l-4.6977539,12.2940063h-1.277832l-.1801758-.1799927,5.1479492-11.6099854h-6.8579102v-1.3320312Z"/>
      <path class="cls-2" d="m190.8173828,110.7720947l.3598633-.5400391c.0961914-.131897.1860352-.2578735.2700195-.3779907.0839844-.119812.1621094-.1799927.2338867-.1799927.0478516,0,.1533203.0540161.3149414.1619873.1621094.1080322.3330078.2402344.5131836.3959961.1801758.1561279.3359375.3060303.4682617.4500122.1318359.144043.1977539.2520142.1977539.3240356-.0361328.1920776-.1860352.2879639-.4501953.2879639h-12.0957031v12.4379883h10.8359375l.4140625-.5759888c.1196289-.1439819.2250977-.2758789.3149414-.3959961.0898438-.119812.1708984-.1799927.2431641-.1799927.0478516,0,.1557617.0601807.3237305.1799927.1679688.1201172.3510742.2609863.5488281.4230347.1982422.1619873.3662109.3180542.5043945.4679565.1376953.1502075.2070312.2610474.2070312.3330078-.0483398.1920776-.1982422.2880249-.4501953.2880249h-12.9418945v.3239746c.0239258.1558228.0361328.2669067.0361328.3330078,0,.0657959.0058594.1288452.0175781.1890259-.0239258.0958862-.1289062.2069702-.3149414.3330078-.1860352.1259766-.4228516.1889648-.7109375.1889648-.0961914,0-.1831055-.0360107-.2607422-.1079712-.0786133-.0720215-.1171875-.1561279-.1171875-.2520142.0239258-.3842163.0478516-.7379761.0717773-1.0620117.0239258-.3239746.0419922-.6508179.0541992-.9810181.0117188-.329895.0239258-.7047729.0361328-1.125.0117188-.4198608.0239258-.9238892.0361328-1.5119629v-6.8760376c0-.6119995-.0180664-1.256897-.0541992-1.9349976-.0361328-.6777954-.0961914-1.2628174-.1801758-1.7550049l1.5839844.7380371h9.9902344Zm-3.3481445,7.1459961c-.828125,1.0681763-1.7250977,2.0159912-2.690918,2.8439941-.9663086.8280029-1.9711914,1.5300293-3.0151367,2.1060181l-.1977539-.2520142c.8876953-.6359253,1.7729492-1.4188843,2.6547852-2.348999.8823242-.9298096,1.7070312-1.9648438,2.4750977-3.1049805-.5878906-.5639038-1.2392578-1.1188354-1.953125-1.6650391-.7138672-.5458984-1.4912109-1.0769043-2.3310547-1.5929565l.1621094-.2880249c.9599609.4680176,1.8237305.9301147,2.5922852,1.3859863.7675781.4561768,1.4516602.9000244,2.0517578,1.3320312.1079102-.1799927.2158203-.362854.3242188-.5490112.1079102-.1859131.2158203-.374939.3237305-.5670166.2880859-.5158081.5581055-1.0980225.8100586-1.7459717.2519531-.6480103.4257812-1.2178345.5219727-1.710022.6240234.3001099,1.0649414.5250854,1.3232422.6749878.2578125.1502075.3867188.2609863.3867188.3330078s-.0600586.1259766-.1796875.1619873l-.3422852.0900269c-.6723633,1.4520874-1.4282227,2.7840576-2.2680664,3.9959717.8520508.684021,1.512207,1.3201904,1.9799805,1.90802.4682617.5880737.7890625,1.104187.9628906,1.5479736.1738281.4440918.2368164.8041382.1894531,1.0800171-.0483398.2761841-.1621094.4440918-.3422852.5040283-.1796875.0601807-.3901367-.0059204-.6298828-.197998-.2402344-.5400391-.5942383-1.1489258-1.0620117-1.8270264-.4682617-.6777954-1.050293-1.3828735-1.7460938-2.1149902Z"/>
      <path class="cls-2" d="m206.9091797,113.3100586l.2880859-.3959961c.0839844-.0958862.1557617-.1889648.2158203-.2789917.0600586-.0899658.1259766-.1350098.1982422-.1350098.0600586,0,.1557617.0480957.2880859.144043.1318359.0961914.2724609.2131958.4228516.3509521.1499023.1381226.2788086.2700195.387207.3960571.1079102.1259766.1616211.2249756.1616211.2969971-.1435547.1681519-.3896484.2879639-.737793.3599854v3.5999756c.0117188.7200317.0239258,1.3081055.0361328,1.7640381.0117188.4561768.0268555.8701782.0449219,1.2420044.0180664.3720703.0385742.7801514.0629883,1.223999-.0722656.1079712-.2192383.2159424-.440918.3239746-.222168.1079712-.4169922.1619873-.5849609.1619873-.0844727,0-.144043-.0360107-.1801758-.1079712-.0361328-.0720215-.0541992-.1558228-.0541992-.2520142.0239258-.0599365.0361328-.1170044.0361328-.1710205,0-.0539551.0117188-.1287842.0361328-.2249756v-.3959961h-6.1201172v.881958c0,.0602417-.0898438.1412354-.2700195.243042-.1796875.1020508-.3779297.1530151-.59375.1530151-.0961914,0-.1772461-.0388184-.2431641-.1170044-.065918-.0779419-.0991211-.1589355-.0991211-.243042.0361328-.4198608.0629883-.7919922.0810547-1.1159668.0180664-.3240356.0332031-.684021.0449219-1.0800171s.0239258-.9058838.0361328-1.5299683v-2.052002c0-.6119995-.0180664-1.256958-.0541992-1.9349976-.0356445-.6778564-.0961914-1.2628174-.1796875-1.7550049l1.3857422.6479492h2.394043v-2.4119873h-4.2480469c-.4677734.012085-.9238281.0391235-1.3676758.0809937-.4443359.0422363-.8881836.098999-1.3320312.1710205l-.4682617-.9180298c.3959961.0480957.7919922.0810547,1.1879883.098999.3959961.0180054.7978516.0332031,1.2060547.0450439h10.9799805l.3959961-.5579834c.1079102-.131958.2070312-.2579346.296875-.3780518.090332-.119812.1713867-.1799927.2431641-.1799927.0478516,0,.1557617.0571289.3242188.1710205.1679688.1141968.3510742.2492065.5488281.4049683.1982422.1561279.3657227.3060303.5039062.4500122.1376953.1439819.2070312.2520142.2070312.3240356-.0478516.1920776-.1977539.2879639-.449707.2879639h-6.9121094v2.4119873h2.3217773Zm-8.8378906,10.2780151h11.8618164v-6.9660034c0-.6119995-.0175781-1.256897-.0537109-1.9349976-.0361328-.6777954-.0961914-1.2628174-.1801758-1.7550049.659668.1921387,1.1220703.342041,1.3862305.4500122.2636719.1080322.4018555.197998.4140625.2700195.0117188.0719604-.0361328.1439819-.144043.2160034l-.3061523.197998v6.6779785c.0117188.7200317.0239258,1.3081055.0361328,1.7639771.0117188.4562378.0268555.8702393.0449219,1.2420044.0180664.3721313.0385742.7799072.0629883,1.223999-.0722656.131958-.2099609.2520142-.4140625.3600464-.2041016.1079712-.4082031.1619873-.6118164.1619873-.1201172,0-.2011719-.0360107-.2431641-.1080322-.0419922-.0719604-.0629883-.1560669-.0629883-.2519531.0239258-.0961914.0361328-.1771851.0361328-.243042,0-.0661011.0117188-.1651001.0356445-.2969971v-.4679565h-11.8618164v.3599854c.0117188.1679077.0180664.2938843.0180664.3779907,0,.0838013.0117188.1558228.0361328.2160034-.0244141.119812-.1352539.2368164-.3330078.3510132-.1982422.1138916-.3994141.1709595-.6030273.1709595-.1083984,0-.2041016-.0360107-.2880859-.1079712-.0839844-.0720215-.1259766-.1561279-.1259766-.2520142.0239258-.3841553.0478516-.7379761.0717773-1.0620117.0239258-.3239746.0419922-.6508179.0541992-.980957.0117188-.3299561.0239258-.704834.0361328-1.125.0117188-.4199219.0239258-.9239502.0356445-1.5120239v-3.9240112c0-.6119995-.0180664-1.256897-.0537109-1.9349976-.0361328-.6777954-.0961914-1.2628174-.1801758-1.7550049.6479492.1799927,1.1040039.3270874,1.3681641.44104.2636719.1141357.3989258.210083.4047852.2879639.0058594.078186-.0390625.1470947-.1347656.2070312l-.3061523.1799927v9.5219727Zm5.3999023-6.7680054v-2.9879761h-2.5019531v2.9879761h2.5019531Zm0,.5220337h-2.5019531v3.3299561h2.5019531v-3.3299561Zm3.6181641-.5220337v-2.9879761h-2.5019531v2.9879761h2.5019531Zm-2.5019531.5220337v3.3299561h2.5019531v-3.3299561h-2.5019531Z"/>
    </g>
    <g>
      <path class="cls-2" d="m38.7285156,89.354248c0-.1743469.0717773-.2615356.2177734-.2615356.1450195,0,.2177734.0871887.2177734.2615356v3.1821594h3.53125v-3.1821594c0-.1743469.0717773-.2615356.2177734-.2615356.1450195,0,.2177734.0871887.2177734.2615356v7.018158c0,.1743469-.0727539.2615356-.2177734.2615356-.1459961,0-.2177734-.0871887-.2177734-.2615356v-3.4436951h-3.53125v3.4436951c0,.1743469-.0727539.2615356-.2177734.2615356-.1459961,0-.2177734-.0871887-.2177734-.2615356v-7.018158Z"/>
      <path class="cls-2" d="m49.8876953,89.354248c0-.1743469.0717773-.2615356.2177734-.2615356.1450195,0,.2177734.0871887.2177734.2615356v7.018158c0,.1743469-.0727539.2615356-.2177734.2615356-.1459961,0-.2177734-.0871887-.2177734-.2615356v-7.018158Z"/>
      <path class="cls-2" d="m60.8286133,89.6593933c.2900391.2908325.4936523.61026.6103516.9590149.0288086.145752-.0151367.2472229-.1308594.3051147-.1162109.0585938-.2177734.0149841-.3051758-.1307678-.1455078-.3487244-.3198242-.6245728-.5229492-.8282166-.3203125-.319458-.6972656-.4795227-1.1333008-.4795227-.4072266,0-.7998047.1893616-1.1772461.5667114-.581543.581665-.871582,1.5549622-.871582,2.9205933,0,1.3077087.2617188,2.223114.784668,2.7462158.3486328.3487244.7412109.5231018,1.1767578.5231018.4360352,0,.828125-.1743774,1.1772461-.5231018.5517578-.5516968.828125-1.3220215.828125-2.3103333,0-.14505-.0585938-.217926-.1743164-.217926h-1.9179688c-.1166992,0-.1743164-.0579224-.1743164-.1743774,0-.1450806.0576172-.2179565.1743164-.2179565h2.1357422c.2617188,0,.3925781.1600647.3925781.4794922v3.0949707c0,.1743469-.0732422.2615356-.2182617.2615356-.1455078,0-.2177734-.0871887-.2177734-.2615356v-1.1769714c-.1459961.3201294-.3203125.581665-.5229492.7846375-.4360352.4359131-.9306641.6538696-1.4824219.6538696-.581543,0-1.0751953-.2029724-1.4819336-.61026-.6103516-.6102905-.9155273-1.6271667-.9155273-3.0513611,0-1.4821167.3193359-2.5426025.9589844-3.1821594.4648438-.4645081.9736328-.6974487,1.5258789-.6974487.6103516,0,1.1040039.1893616,1.4819336.5666809Z"/>
      <path class="cls-2" d="m71.1157227,89.2670898l2.3540039,7.0181274c.0581055.1743774.0141602.2908325-.1308594.3487244-.1455078.0292969-.2470703-.0435791-.3051758-.2179565l-.6538086-1.9615784h-2.9638672l-.6977539,2.005188c-.0585938.1743469-.1743164.2329407-.3486328.1743469-.1166992-.0578918-.1455078-.1593628-.0874023-.3051147l2.3979492-7.0617371c.0576172-.1158142.1303711-.1743774.2177734-.1743774.0869141,0,.1591797.0585632.2177734.1743774Zm1.1333008,4.7949829l-1.3510742-4.0975342-1.3515625,4.0975342h2.7026367Z"/>
      <path class="cls-2" d="m83.3212891,89.6593933c.2617188.2615356.4360352.5666809.5229492.9154053,0,.145752-.043457.2329407-.1303711.2615662-.1166992.0292664-.2182617-.0286255-.3051758-.1743774-.1166992-.2901611-.2768555-.537384-.4794922-.7410583-.2910156-.2901306-.6396484-.4359131-1.0463867-.4359131-.4360352,0-.784668.1307983-1.0458984.392334-.2910156.2908325-.4360352.6688538-.4360352,1.1333618,0,.3780212.1015625.6688538.3051758.8718262.2319336.2329407.5371094.4072876.9150391.5231018.5810547.1743469.987793.3051147,1.2207031.3923035.2900391.1164856.5375977.2765198.7412109.4794922.3193359.3201294.4794922.7410583.4794922,1.2641602,0,.6688232-.1743164,1.1769409-.5229492,1.5256653-.378418.3780212-.9013672.5666809-1.5693359.5666809-.6103516,0-1.0898438-.1743469-1.4384766-.5230713-.2910156-.2901611-.5087891-.7117615-.6542969-1.2641602-.0292969-.2029724.0146484-.3194275.1308594-.3487244.1450195-.028595.246582.0436096.3051758.2179565.1450195.4944763.3193359.8432312.5234375,1.0461731.3193359.3201294.6972656.4795227,1.1333008.4795227.5229492,0,.9296875-.1450806,1.2202148-.4359131.2905273-.2901611.4360352-.7117615.4360352-1.2641296,0-.3773499-.1162109-.6824951-.3486328-.9154358-.2036133-.2029724-.3925781-.3337402-.5668945-.3923035-.3486328-.1450806-.7700195-.2901611-1.2641602-.4359131-.4355469-.1450806-.7558594-.3194275-.9589844-.5231018-.3486328-.3487244-.5229492-.7696533-.5229492-1.2641296,0-.5516968.1743164-1.002594.5229492-1.3513184.3774414-.3773193.8427734-.5666809,1.3950195-.5666809.5810547,0,1.0605469.1893616,1.4384766.5666809Z"/>
      <path class="cls-2" d="m90.6015625,89.354248c0-.1743469.0717773-.2615356.2177734-.2615356.1450195,0,.2177734.0871887.2177734.2615356v3.1821594h3.53125v-3.1821594c0-.1743469.0717773-.2615356.2177734-.2615356.1450195,0,.2177734.0871887.2177734.2615356v7.018158c0,.1743469-.0727539.2615356-.2177734.2615356-.1459961,0-.2177734-.0871887-.2177734-.2615356v-3.4436951h-3.53125v3.4436951c0,.1743469-.0727539.2615356-.2177734.2615356-.1459961,0-.2177734-.0871887-.2177734-.2615356v-7.018158Z"/>
      <path class="cls-2" d="m101.7607422,89.354248c0-.1743469.0717773-.2615356.2177734-.2615356.1450195,0,.2177734.0871887.2177734.2615356v7.018158c0,.1743469-.0727539.2615356-.2177734.2615356-.1459961,0-.2177734-.0871887-.2177734-.2615356v-7.018158Z"/>
      <path class="cls-2" d="m113.4428711,96.1544495c.0869141.145752.0869141.2615356,0,.3487244-.1166992.1164856-.2329102.1164856-.3486328,0l-2.3540039-3.9231873-1.3515625,1.6564636v2.1359558c0,.1743469-.0727539.2615356-.2177734.2615356-.1459961,0-.2177734-.0871887-.2177734-.2615356v-7.018158c0-.1743469.0717773-.2615356.2177734-.2615356.1450195,0,.2177734.0871887.2177734.2615356v4.2283325l3.4438477-4.3591003c.0874023-.0871887.1743164-.0871887.2617188,0,.1157227.0871887.1157227.2179565,0,.392334l-2.0488281,2.5718689,2.3974609,3.9667664Z"/>
      <path class="cls-2" d="m120.1123047,89.354248c0-.1743469.0717773-.2615356.2177734-.2615356.1450195,0,.2177734.0871887.2177734.2615356v4.2719116c0,1.0462036.1889648,1.7586365.5668945,2.1359558.3193359.3201294.7260742.4795227,1.2207031.4795227.4936523,0,.9003906-.1593933,1.2202148-.4795227.4067383-.4066162.6103516-1.1183777.6103516-2.1359558v-4.2719116c0-.1743469.0722656-.2615356.2177734-.2615356s.2182617.0871887.2182617.2615356v4.3155212c0,1.1047668-.2475586,1.9036865-.7412109,2.3974915-.3779297.3780212-.8867188.5666809-1.5253906.5666809-.6396484,0-1.1484375-.1886597-1.5258789-.5666809-.465332-.4645081-.6972656-1.2641296-.6972656-2.3974915v-4.3155212Z"/>
      <path class="cls-2" d="m133.7124023,89.0927124c.5234375,0,.9443359.1600647,1.2641602.4794922.2905273.2908325.4360352.7560425.4360352,1.394928,0,.6974487-.1455078,1.191925-.4360352,1.4820862-.2905273.2908325-.7124023.4359131-1.2641602.4359131l1.7436523,3.4436951c.0581055.145752.0288086.2472229-.0869141.3051147-.1166992.0585938-.2182617.0149841-.3051758-.1307678l-1.7871094-3.618042h-1.4824219v3.4872742c0,.1743469-.0727539.2615356-.2177734.2615356-.1459961,0-.2177734-.0871887-.2177734-.2615356v-6.8437805c0-.2901611.1157227-.4359131.3486328-.4359131h2.0048828Zm-1.7871094.3923035c-.0869141,0-.1308594.0585938-.1308594.1743774v2.8334045h1.8745117c.4360352,0,.7695312-.1157837,1.0024414-.3487244.203125-.2029724.3051758-.5952759.3051758-1.1769409,0-.5231018-.1162109-.9004211-.3486328-1.1333618-.2329102-.2322693-.5522461-.3487549-.9589844-.3487549h-1.7436523Z"/>
      <path class="cls-2" d="m142.0820312,89.354248c0-.1743469.0717773-.2615356.2177734-.2615356.1450195,0,.2177734.0871887.2177734.2615356v4.2719116c0,1.0462036.1889648,1.7586365.5668945,2.1359558.3193359.3201294.7260742.4795227,1.2207031.4795227.4936523,0,.9003906-.1593933,1.2202148-.4795227.4067383-.4066162.6103516-1.1183777.6103516-2.1359558v-4.2719116c0-.1743469.0722656-.2615356.2177734-.2615356s.2182617.0871887.2182617.2615356v4.3155212c0,1.1047668-.2475586,1.9036865-.7412109,2.3974915-.3779297.3780212-.8867188.5666809-1.5253906.5666809-.6396484,0-1.1484375-.1886597-1.5258789-.5666809-.465332-.4645081-.6972656-1.2641296-.6972656-2.3974915v-4.3155212Z"/>
      <path class="cls-2" d="m154.2001953,89.5722046l1.7001953,6.5822449,1.65625-6.5822449c.0874023-.3194275.2617188-.4794922.5229492-.4794922.2617188,0,.3925781.1743774.3925781.5231018v6.7565918c0,.1743469-.0585938.2615356-.1743164.2615356-.1743164,0-.2617188-.0871887-.2617188-.2615356v-6.5822449c0-.0871887-.0146484-.1014709-.043457-.0435791l-1.6567383,6.4950562c-.0581055.2615356-.2036133.3923035-.4355469.3923035-.2329102,0-.3779297-.1307678-.4360352-.3923035l-1.65625-6.4514771c-.0292969-.0578918-.0439453-.0578918-.0439453,0v6.5822449c0,.1743469-.0727539.2615356-.2177734.2615356-.1459961,0-.2177734-.0871887-.2177734-.2615356v-6.6694336c0-.4066162.1450195-.61026.4355469-.61026.2324219,0,.3774414.1600647.4360352.4794922Z"/>
      <path class="cls-2" d="m169.0209961,89.0927124c.1162109,0,.1748047.072876.1748047.2179565,0,.1164551-.0585938.1743469-.1748047.1743469h-3.2255859c-.0869141,0-.1308594.0585938-.1308594.1743774v2.7026367h3.0078125c.1157227,0,.1743164.072876.1743164.2179565,0,.1164856-.0585938.1743774-.1743164.1743774h-3.0078125v3.3565063c0,.0871582.0439453.1307678.1308594.1307678h3.1386719c.1157227,0,.1743164.0585632.1743164.1743469,0,.1457825-.0585938.2179565-.1743164.2179565h-3.3564453c-.2329102,0-.3486328-.1450806-.3486328-.4359131v-6.6694031c0-.2901611.1157227-.4359131.3486328-.4359131h3.4433594Z"/>
    </g>
    <path class="cls-2" d="m36.8796807,42.828099s.4013187.0772762,1.1537707.222213c.7512662.138197,1.8609778.3204175,3.2802119.4920823,1.4198818.1664705,3.1524152.3159403,5.1387303.359454,1.9852391.0403908,4.2244795-.0161085,6.6255187-.2645556,2.3996339-.2426952,4.9631088-.6667983,7.5577753-1.3366877,2.5946665-.6663283,5.2173187-1.5827049,7.7056197-2.7663617.1549369-.0745118.3101813-.1491591.465755-.2239656l.0583319-.0280266c.0132957-.0063016-.0125491.0060148.0126479-.0065087l.0298082-.0153118.1196501-.0612474.2396406-.12267c.1598556-.081865.3200405-.1638814.4805438-.2460571.1521482-.0809488.3046039-.1620331.4572901-.2432767.1515993-.0808532.3035279-.1618658.4556652-.2430059.1541794-.0850357.3085783-.1702069.4632957-.2555294.1548162-.0856014.3098519-.1713541.465217-.2572422.1552443-.0878798.3107192-.1758871.4665016-.2640139.6264779-.3574464,1.2566996-.7170518,1.8901382-1.0784655.3168346-.1829057.6444836-.3627442.9711774-.5447736.3241247-.18234.6598214-.3621547.9940139-.5429173.6696806-.3610075,1.3617805-.7160081,2.0752018-1.0603654.1749847-.0881825.3593895-.1705893.542411-.2540476l.5494925-.2503431c.3715105-.1631007.7582489-.3149843,1.1377961-.4727473,1.5465037-.6083472,3.231322-1.1057193,5.0132832-1.4151191l.302463-.0509226.1529936-.0249913.1754129-.0233024.7022775-.0908275c.4535243-.0429321.9011637-.0916879,1.3540512-.1117398.4516029-.0318824.9033047-.0361047,1.3543696-.0464693.45.0038558.900527.003577,1.3467611.0271741l.3352685.0137504c.1116134.0049951.2221619.0147064.3332374.0219002.2215141.0165307.444203.0292295.6644326.0494249l.6583172.0673498c.2193622.0222508.4346512.0552007.6518835.0824705.8651304.1175316,1.7156915.2641652,2.5425597.44347,1.6589735.3497825,3.2374373.8049873,4.7353695,1.317759,1.5023348.5084936,2.9303631,1.0689215,4.2956789,1.6544603.6806158.2941516,1.3516907.5889325,2.0049686.8894734.3289445.1485377.6504891.3005169.9732195.4496043.3184375.152505.6352611.3042134.9504818.4551252,1.238145.6054633,2.44949,1.1978454,3.628787,1.7744774,1.1702722.5684583,2.3228681,1.0995532,3.4509038,1.5926791,1.1266413.4953486,2.2357051.9440925,3.3167832,1.3486695,2.161179.8101975,4.2304851,1.4154935,6.1259811,1.8028705.9470563.1958435,1.850899.3305113,2.6942798.427473.4216849.0518707.8292178.0793316,1.2198099.1108794.3905921.0162838.7651109.0456726,1.1208553.0464056.1778722.0025493.351781.0082136.5204308.0080144.1687596-.0026449.3325896-.0051942.49149-.0076798.0797741-.0009958.1582526-.0019439.2354466-.0028999.0769854-.0032902.1526862-.0065326.2270915-.0097033.1493486-.0067716.2934491-.0133282.4325103-.0196298.5550699-.0341688,1.0286529-.0765353,1.4089576-.1266932.383302-.0415858.6725681-.0914887.8698514-.1202004.1970637-.0298748.2987081-.0452982.2987081-.0452982,0,0-.0967148.0272299-.2842377.0799769-.1885878.0507474-.4643606.1387547-.8394064.2190024-.7431197.1738875-1.8624709.4004901-3.3367212.5050918-.1839876.0146267-.373333.0293729-.5678166.0353798-.1949228.0077436-.3946763.0156783-.5992497.0238122-.4089272.0028521-.8391868.0109302-1.2862883-.0045728-.8953668-.0206734-1.8623721-.0938309-2.8851183-.2182695-1.0232842-.1238172-2.096644-.3138929-3.2106374-.5526605-1.1137738-.2400343-2.2611107-.5433874-3.4357856-.8935204-1.1741369-.3514953-2.3694085-.7596334-3.5861113-1.2052065-1.216593-.4464097-2.4441322-.9430967-3.6908628-1.4655-.3115756-.1303339-.6256105-.2631774-.9393271-.3996536-.3106094-.1357433-.623261-.272339-.9378339-.4097712-.6224046-.2732073-1.25177-.5491074-1.8892819-.8222988-1.2767474-.5456977-2.5753762-1.0974659-3.9161318-1.6187379-1.3425781-.5165478-2.7126039-1.02203-4.1264801-1.4631737-.3518908-.1139944-.7097872-.215051-1.0660697-.3223534-.3593895-.0983241-.7175055-.2035233-1.0810781-.2936975-.7225339-.1932304-1.4555858-.3623698-2.1950715-.5091946-.7388269-.1502505-1.486459-.2679733-2.2367701-.3599718-.7506294-.0936317-1.5043659-.1544887-2.2572571-.1830252-.376978-.0190243-.7525618-.0156942-1.1285736-.0183949-.3745078.011456-.7504098.0149533-1.1222387.0438563-.373333.0170008-.7444153.0610881-1.1114243.0959659l-.5201124.0688475-.1301571.0166343-.1496779.0251108-.302463.0508191c-1.4424.2450852-2.8582086.6481245-4.2153669,1.1748856-.3367726.1388503-.6762241.2702677-1.0108558.4138262l-.5007014.2194326c-.1668273.0730778-.3343023.1444986-.4982421.2243401-.6609961.3070495-1.3140654.6291002-1.9613376.9653475-.6483372.3341042-1.288539.6811064-1.9339887,1.0289848-.6512357.3496152-1.2991558.6974539-1.9432112,1.0431893-.1628638.0867326-.3255191.1732979-.4879547.2597517-.164895.0858165-.3296911.1714895-.4941579.2570271-.1649059.0855058-.3294825.170892-.4938505.256095-.1702637.0852747-.3400883.170406-.5097153.2553621-.169078.0836495-.3400883.1723419-.5065972.2512513-.1650047.077332-.3296911.1545286-.4940591.2315897l-.2463927.1154523-.122867.0576465-.0793349.0369173-.0651938.0286878c-.173799.0763999-.3472796.1526405-.520332.2287058-2.7733951,1.2131811-5.6732034,2.0909117-8.4990346,2.6827122-1.4147327.2933788-2.8097469.5231362-4.1708686.6843966-1.3612425.1605195-2.6844096.2669854-3.9567654.3176292-.1590102.0063653-.317153.0126829-.4744394.0189685-.1572864.0056563-.3141447.006923-.4698282.0105398-.3116854.0041426-.6188584.0165148-.9235721.0132087-.3040659-.0006055-.6047063-.0012109-.9017017-.0018084-.296666-.0072576-.5896979-.0144116-.878975-.0214939-.2889477-.0062857-.573932-.0244894-.854843-.0359454-.1403457-.0065725-.2797253-.013129-.4182594-.0196218-.1381938-.0092572-.2753336-.0184587-.4116061-.0275804-.2723254-.019566-.540808-.0334757-.8043501-.0570091-.2631029-.0241389-.5222534-.0479192-.7773196-.0713172-2.0372471-.2023203-3.777927-.5056017-5.1812963-.8096398-.7017395-.1529512-1.3215641-.3020704-1.8524031-.4484093-.5342645-.1368347-.9793239-.2768481-1.3418315-.3800318-.3601361-.1076769-.629047-.2019857-.8135616-.2603173-.1834496-.0599249-.2781223-.0908514-.2781223-.0908514Z"/>
    <path class="cls-2" d="m104.4909286,32.0668276s.3000036-.0475767.8625722-.1368108c.1409935-.0209283.2973138-.0474731.4714312-.0708551.1764779-.0178771.36915-.0373635.5773684-.0584272.210041-.0208327.4357381-.043195.6765425-.067063.2409252-.0150728.496738-.0258119.7684265-.0400084.2712714-.0105797.5592529-.0357861.8595749-.0304006.3015956-.0007728.6173543-.0015774.9465074-.0024139.3297021.0019837.6707565.0215178,1.0268304.0350691.1775538.0091457.3602459.0115516.5431576.0267679.1833508.0144116.3697977.0290782.5592529.0439917,1.5176616.1197543,3.2182459.3599161,5.0242184.7408242.4495608.0978142.9133944.1928241,1.3727047.3115666.4621099.1144246.9360114.2279649,1.4069155.3605375.2367421.0647686.4755154.1300631.71621.1958992.2373789.0708711.4765913.1423157.7177141.2143181.2401676.073269.4855942.1433594.7270463.2209702.2416717.0775391.4850562.1556519.7301534.2342904.4942786.1530866.9779295.3288383,1.4752055.4991009.2486435.0851074.4925659.1773609.741418.266595.2497084.0915126.4936309.1774565.752452.2751353.4908422.1854391.9816844.3656202,1.4850647.5671598.2511138.0987064.5035011.197875.7568546.2974976.2501366.0998616.5013492.2001614.7536377.3008914,1.0109546.4007211,2.0223375.8195344,3.0447653,1.2370411.5112084.2086379,1.0253153.4175068,1.5418925.6233882.5148644.2065506,1.0323968.4141449,1.5519823.6225676,1.0405433.4067678,2.0942835.8066205,3.1557309,1.1834576l.397992.1431124.4008905.136285c.2676153.090222.5341547.1835032.8029558.2715184.5401603.16898,1.0769939.3480936,1.6234891.5007102.2726547.0775471.5410166.1659447.8153841.2377559l.8205443.2218067.2051004.0552167.2068241.0496161.4134396.0993517.4130993.0994633.1032583.0248798.0258338.0062219c-.0040732-.0006612.0455742.010269-.0026789.0000956l.0547857.0115357.2191536.0460949.4378791.0921499.2187254.0460232c.0726926.0151525.1477456.0318346.2133676.042733.2706126.0506996.5410166.1013514.8108827.1519155.2715788.0502774.557639.0916082.8351135.1379978.2785615.0483893.5603289.083769.8410203.1216981.2805926.0382159.5604277.0775232.8425134.1050638.2816686.0291419.5616134.064442.8430514.0887561.281449.0252223.5621514.0503889.8420962.0754997.2805816.0223703.5614926.037244.8411191.0563639.2795167.0212231.5594615.0295243.8384402.0409644.2789787.0110656.5570022.0246009.8347951.0259473.2778039.0045091.5545319.0090023.8302937.0134795.2760912-.0006612.5511064-.0013065.8249359-.0019678,1.0959767-.0137504,2.1741563-.0661708,3.2280063-.1449368,1.0524446-.0850596,2.080878-.1949114,3.0743539-.3383345.2501366-.0306476.4950252-.0721935.7393759-.1103377.2437029-.0401597.4884817-.0731894.7268268-.1183282.4781943-.0868999.9504818-.17137,1.4102312-.2676865.2297704-.0480786.4613633-.0888119.6849086-.1418059.2248408-.0510421.4477383-.1015904.6685058-.1516925.2222607-.0477679.4368031-.1059003.6517737-.1594519.2148608-.0540854.4276905-.107653.6382694-.1606549,1.6753872-.4441949,3.1738574-.9402765,4.4700159-1.4326695,1.2975418-.491684,2.3903017-.9818224,3.2791359-1.4036312.2187254-.1092622.4256593-.2126769.6204723-.3100052.0981092-.0484689.1931002-.0954242.285094-.1408339.0897431-.0474572.1763681-.0933051.2600068-.137472.1673653-.0888278.3221814-.1710035.464141-.2462722.0712982-.0375387.1394893-.0733646.204244-.1074458.0630529-.0355869.1227682-.0693574.1792776-.1012558.4559946-.2544619.6991595-.3901574.6991595-.3901574,0,0-.1976017.1709239-.568146.4913972-.3764401.3177089-.9511296.7701334-1.7309195,1.3171774-.7878376.5392447-1.7884938,1.1670384-3.0217202,1.8134342-.154388.0807576-.3112462.1627979-.4705748.2460969-.1634018.0788696-.3293727.1589261-.4977041.2401459-.1691878.0808373-.3407361.1628378-.5146449.2459615-.1774441.079244-.3572486.1595475-.5394137.2409107-.7283309.3277867-1.5245236.6349557-2.3640397.9471437-1.691252.6034079-3.6013393,1.1604102-5.6963693,1.5874451-.2624661.0520539-.5267658.1044504-.7927672.1571974-.2684717.0459196-.5387659.092134-.8106741.1386352-.1361627.0226013-.2724351.0470509-.4100032.0683297-.1378754.0200122-.27619.040088-.4149328.0602197-.2779027.0386461-.5562446.0841753-.8388684.1176272-.2827335.0340971-.56707.0683696-.8528118.1028093-.2863786.0325038-.5760729.0543881-.8665247.0821598-.1453961.0130732-.2910996.0261783-.4371325.0393073-.1465709.0098388-.2934491.0197254-.4406678.0296438-.2947337.0178691-.5902249.0437049-.8885048.0550016-1.1916266.0669674-2.4099323.0682102-3.6421925.0349496-.3079305-.0117826-.6173543-.019582-.9269975-.0351647-.3095445-.01861-.6199343-.0372838-.9311916-.0559974-.3109278-.0211593-.6211091-.0543005-.9328933-.0812038-.3122234-.0253817-.6229426-.0628965-.9345182-.0996545-.3115756-.0364871-.6244358-.0707038-.9348256-.118376-.3121136-.0461506-.6204723-.085442-.9374057-.1379341-.317691-.0547148-.6357991-.1094853-.9543465-.1643355-.0823432-.013846-.1525654-.0290941-.2260156-.0439519l-.2192524-.0447565-.438955-.0895847-.2195818-.0448282-.0548955-.011209-.0853405-.0193509-.1137653-.0265687-.4553468-.1064102-.4555664-.106681-.2278381-.053464-.2245224-.0587618-.8978371-.2367441c-.1506441-.0382318-.297742-.0812595-.444741-.1244785l-.4414143-.1293779c-2.3525666-.6969998-4.5776549-1.5438836-6.6947748-2.4269996-.5254812-.2233204-1.0548051-.4411995-1.5677373-.6677304-.5160392-.2255191-1.0243601-.4517951-1.528498-.6771788-1.0084843-.4498752-1.9966025-.8961335-2.9605996-1.3364168-.2414522-.1094773-.4819491-.2185165-.7213592-.3270617-.2379169-.1063703-.4748676-.2122547-.7107534-.3176372-.4778649-.2121193-.9512284-.422231-1.4194537-.6300722-.2211848-.0986507-.4612426-.1993249-.6890807-.298111-.2309561-.0981408-.4584649-.1998427-.6886634-.2935541-.2297704-.0946435-.4581355-.1886974-.6850184-.2821778-.1132164-.0471066-.2261144-.0940778-.338694-.1408738-.1133262-.0452424-.2263339-.0903256-.3389135-.1352493-1.8013723-.7213776-3.5445115-1.3425591-5.196634-1.8403614-1.6506074-.5005747-3.2105166-.8749422-4.621725-1.1379284-.1765877-.0333961-.3503867-.0662265-.5212872-.0985312-.1709115-.0332208-.3413838-.0533286-.5080025-.0800327-.1670359-.0252303-.3310855-.0499906-.492017-.0742808-.1612609-.0230634-.3188657-.0544758-.475186-.0692379-.6242272-.070648-1.2011674-.1457812-1.7267474-.1774406-.2624661-.0197652-.5122844-.0412751-.7470942-.0566029-.2345902-.0089465-.4544904-.0173274-.6591736-.0251267-.2063959-.0080543-.3973443-.015503-.572329-.0223304-.1764779-.0026609-.3374094.0003904-.4811916.0002151-.5757545-.0002948-.8829384-.0004461-.8829384-.0004461Z"/>
    <g>
      <path class="cls-2" d="m20.3916016,54.6172485l.4863281-.6990356c.1416016-.1823425.2685547-.3494873.3798828-.5014648.1113281-.151947.2280273-.2279358.3496094-.2279358.1010742,0,.2685547.0864258.5014648.2583313.2329102.1723938.4863281.3799133.7597656.6230469s.5063477.4762878.6992188.6990051c.1923828.2232056.2885742.3950806.2885742.5166626-.2431641.2635498-.668457.4762878-1.2763672.6382141v8.20578c.0200195,1.2156677.0400391,2.2086487.0605469,2.9783936.0200195.7702637.0458984,1.4692688.0761719,2.0970459.0302734.6282654.0654297,1.3172913.1064453,2.0666504-.1420898.162384-.3950195.3395081-.7597656.5318298-.3647461.1928101-.7197266.2887268-1.0639648.2887268-.1420898,0-.2431641-.060791-.3037109-.1823425-.0610352-.121582-.0913086-.263092-.0913086-.4254761.0405273-.060791.0610352-.121582.0610352-.182373,0-.0607605.0097656-.14151.0302734-.2431335v-.5470276h-2.9179688v7.1724548c0,.223175.065918.3699036.1977539.4406738.1313477.071228.4711914.1063538,1.0180664.1063538h4.6650391c.496582,0,.8457031-.0099487,1.0488281-.030365.1821289-.0199585.3085938-.060791.3798828-.121582.0708008-.060791.1367188-.1619263.1972656-.3039246.121582-.2630615.2583008-.7849426.4106445-1.565155.1518555-.7797546.3085938-1.6359558.4707031-2.5681152h.4257812l.0605469,4.2852478c.3442383.1016235.5571289.2179565.6381836.3494873.0810547.1315613.121582.2987061.121582.5014648,0,.3039246-.1367188.5518188-.4101562.7445984-.2734375.1923218-.8007812.3291016-1.5805664.4103088-.7797852.080719-1.9501953.1215515-3.5102539.1215515h-3.2211914c-1.1547852,0-1.9047852-.1419678-2.2490234-.4254761-.3447266-.2839661-.5166016-.8006287-.5166016-1.5499878v-7.5675354h-3.3129883c-.3037109,2.0466919-.8964844,3.7381897-1.777832,5.0754089-.8813477,1.3372498-2.1274414,2.406189-3.7382812,3.2063293-1.6108398.8001709-3.6621094,1.4231873-6.1542969,1.8691101l-.121582-.4862671c2.1274414-.6078491,3.8598633-1.3272705,5.1972656-2.1578369,1.3369141-.8305359,2.3500977-1.8538818,3.0390625-3.0695496.6884766-1.2156677,1.1547852-2.6944275,1.3979492-4.4371948h-2.6743164v1.2156677c0,.1016235-.1625977.2383728-.4863281.4102783-.3242188.1723938-.6889648.2583313-1.0942383.2583313-.1621094,0-.309082-.060791-.4404297-.1823425-.1323242-.121582-.1977539-.263092-.1977539-.4255066.0405273-.6481934.0761719-1.2408142.1064453-1.7778931.0302734-.5366211.0556641-1.0836792.0761719-1.6411743.0195312-.5570068.0400391-1.190033.0605469-1.8994751.0200195-.7089844.0405273-1.5499878.0605469-2.522522v-4.2244568c0-1.0333252-.0302734-2.1221924-.0908203-3.2671204-.0610352-1.1444397-.1625977-2.1321716-.3041992-2.9631958l2.4619141,1.1245117h12.4604492Zm.3041992,4.9234619v-4.0117188H7.7792969v4.0117188h12.9165039Zm-12.9165039,4.9842529h12.9165039v-4.1029053H7.7792969v4.1029053Zm12.9165039.9117432H7.7792969v4.1636658h12.9165039v-4.1636658Z"/>
      <path class="cls-2" d="m44.2490234,73.6120911v.9421387c.0405273.4663391.0605469.8106079.0605469,1.0333252,0,.2232056.0200195.4459229.0610352.6686096-.0610352.1624146-.2333984.3395386-.5166016.5318604-.2841797.1928101-.6586914.2887268-1.1245117.2887268-.1420898,0-.2788086-.060791-.4106445-.1823425-.1318359-.121582-.1972656-.263092-.1972656-.4254761.0405273-.6482239.0805664-1.2460632.121582-1.7931213.0405273-.5470581.0708008-1.0988464.0913086-1.6563416.0195312-.5570374.0400391-1.190033.0605469-1.8995056.0200195-.7089844.0405273-1.5599365.0610352-2.5529175v-7.2332153c0-1.0333252-.0307617-2.1222229-.0913086-3.2671204-.0610352-1.1444397-.1625977-2.1321716-.3041992-2.9631958l2.5532227,1.1548767h3.3427734l.4560547-.5774536c.121582-.1619263.2329102-.303894.3344727-.4254761.1010742-.1215515.2124023-.1823425.3339844-.1823425s.3496094.1168213.684082.3494873c.3339844.2331848.6533203.4967346.9570312.7901917.3041992.2939453.4560547.5119324.4560547.6534424-.0810547.1016235-.2177734.2027588-.4101562.303894-.1928711.1016235-.4208984.182373-.684082.2431335v10.2420349c.0200195,1.2156677.0405273,2.2086182.0610352,2.9783936.0200195.7702332.0454102,1.4692688.0756836,2.0970459.0307617.6282349.065918,1.3172913.1064453,2.0666199-.1416016.182373-.4003906.3751526-.7749023.5774536-.375.2027588-.7143555.3039246-1.0180664.3039246-.1420898,0-.2485352-.060791-.3193359-.1823425-.0708008-.121582-.105957-.263092-.105957-.4255066.0195312-.1215515.0400391-.2279358.0605469-.3190918.0200195-.0911865.0405273-.237915.0610352-.4407043v-.6990051h-3.9814453Zm3.9814453-9.2998657v-7.2028503h-3.9814453v7.2028503h3.9814453Zm-3.9814453.8509521v7.5675659h3.9814453v-7.5675659h-3.9814453Zm19.5112305-5.8656006l.5170898-.7901917c.1411133-.202301.2734375-.3846436.3950195-.5470581.121582-.1619263.2431641-.2431335.3647461-.2431335.0805664,0,.237793.0812073.4707031.2431335.2329102.1624146.4814453.3547363.7446289.5774536.2631836.223175.4863281.4406738.6689453.6534119.1821289.212738.2734375.3799133.2734375.5014648-.0810547.3243408-.3344727.4862671-.7597656.4862671h-6.0786133v2.644104h4.4677734l.5776367-.8509827c.1616211-.2227173.3085938-.4202576.4404297-.5926514.1313477-.171875.2583008-.2583313.3798828-.2583313.1010742,0,.2734375.0864563.5166016.2583313.2431641.1723938.5117188.3851318.8056641.6382446.293457.2535706.5415039.4914856.7446289.7142029.2021484.223175.3037109.3950806.3037109.5166626-.0810547.3243408-.3242188.4862671-.7294922.4862671h-11.730957c-.7905273.0204163-1.5605469.0660095-2.3100586.1367493-.7495117.071228-1.4995117.1671753-2.2490234.2887268l-.7597656-1.5803528c.6689453.0811768,1.3374023.1367493,2.0058594.1671448.6689453.0303955,1.347168.0560303,2.0361328.0759888h3.6166992v-2.644104h-2.0966797c-.628418.0204163-1.2568359.0660095-1.8842773.1367798-.628418.071228-1.2568359.1671448-1.8847656.2887268l-.7597656-1.5499878c.6689453.0812073,1.3374023.1367493,2.0058594.1671448.6689453.0303955,1.3476562.0560303,2.0366211.0759888h2.5830078v-2.4009705h-2.2182617c-.7094727.0204468-1.3881836.0660095-2.0366211.1367798-.6484375.071228-1.3066406.1671448-1.9750977.2887268l-.7905273-1.5803833c.6689453.0812073,1.3374023.1367798,2.0058594.1671448.6689453.0303955,1.347168.0560608,2.0366211.0759888h2.9780273c0-.5266418-.0151367-1.0684509-.0454102-1.625946-.0302734-.5570374-.0761719-1.0585022-.1367188-1.5043945,1.0532227.3039246,1.7875977.5522766,2.203125.7445984.4150391.1927795.6279297.3547363.6381836.4862671.0102539.132019-.0756836.2483521-.2583008.3494873l-.5166016.3343201v1.2156677h3.8295898l.6079102-.8509521c.1616211-.202301.3085938-.3951111.4404297-.5774536s.2583008-.2735291.3798828-.2735291c.1010742,0,.2783203.0864258.5317383.2583313.253418.1723633.5214844.3851318.8056641.6382141.2832031.2536011.5317383.4915161.7446289.7142029.2124023.2232056.3188477.3951111.3188477.5166626-.0405273.1624146-.1367188.2839966-.2885742.3647156-.1518555.0812073-.3188477.1215515-.5014648.1215515h-6.8686523v2.4009705h3.4038086Zm-8.5703125,15.3174438v1.8235168c.0405273.8917847.0654297,1.5552063.0761719,1.9906616.0097656.4354553.0351562.9165039.0756836,1.4436035-.0810547.1619263-.2685547.3442688-.5620117.5470581-.2939453.2022705-.6738281.303894-1.1396484.303894-.1420898,0-.2734375-.0607605-.3950195-.1823425-.121582-.1215515-.1826172-.2635498-.1826172-.4254761.0405273-.6486816.0805664-1.2261353.121582-1.7323303.0405273-.5062256.0708008-1.0637207.0913086-1.6715393.0200195-.6078491.0400391-1.3980408.0605469-2.370575v-3.1911316c0-1.0333252-.0302734-2.1221924-.0908203-3.2671204-.0610352-1.1444397-.1625977-2.1321716-.3041992-2.9631958l2.5834961,1.1549072h7.9018555l.425293-.6078491c.121582-.1619263.2280273-.3039246.3193359-.4254761.0908203-.121582.1972656-.182373.3188477-.182373.0810547,0,.2480469.0759888.5014648.2279358.253418.1519775.5166016.3343201.7905273.5470581.2734375.212738.5112305.4207458.7138672.6230469.2026367.2027588.3041992.3646851.3041992.4862671-.2231445.2431335-.628418.4359131-1.2158203.5774231v10.728302c0,.4862671-.0610352.9117737-.1821289,1.2764587-.121582.3647156-.3852539.6581726-.7905273.8813782-.4052734.2226868-1.0234375.3746643-1.8540039.4558716-.0405273-.2635498-.105957-.5119324-.1972656-.7445984-.0913086-.2331848-.2182617-.4103088-.3798828-.5318604-.2026367-.1624146-.4765625-.2991638-.8208008-.4103088-.3447266-.1115723-.800293-.2079773-1.3676758-.2886963v-.4862671c.5268555.0408325.9775391.0759583,1.3525391.1063538.3745117.0303955.7294922.0555725,1.0639648.0759888.3339844.019928.5722656.0303955.7138672.0303955.4052734,0,.6079102-.202301.6079102-.6078491v-3.1911316h-8.5400391Zm8.5400391-4.8322754v-2.8264465h-8.5400391v2.8264465h8.5400391Zm-8.5400391.8813477v3.0695801h8.5400391v-3.0695801h-8.5400391Z"/>
      <path class="cls-2" d="m95.8847656,67.4121704c1.3774414.4055481,2.3706055,1.1349487,2.9785156,2.1882019.6074219,1.0537415.840332,2.2390137.6987305,3.5558472-.1015625.9725342-.5424805,1.8690796-1.3217773,2.6896667-.7802734.8205872-2.0263672,1.53479-3.7382812,2.1426086-1.7124023.6078491-4.0375977,1.0941162-6.9750977,1.4588318-.3242188.0403442-.4863281-.0303955-.4863281-.2127686-.0205078-.1215515.050293-.1975403.2128906-.2279358.1621094-.0303955.3139648-.0560303.4560547-.0759583.0805664-.0204163.4199219-.0812073,1.0180664-.182373.597168-.1016235,1.3320312-.2734985,2.203125-.5166626.8710938-.2431335,1.7626953-.5874023,2.6748047-1.0332947.9116211-.4454346,1.7167969-1.0129089,2.4160156-1.7019348.6987305-.6885681,1.1699219-1.5195923,1.4130859-2.4921265.0405273-.202301.0761719-.5318604.1064453-.9877319.0302734-.4559021,0-.9468994-.0913086-1.4740295-.0908203-.5266113-.2885742-1.0028992-.5922852-1.4284058-.3041992-.4254761-.7705078-.7294006-1.3984375-.9117432-.8505859-.2227173-1.6157227-.177124-2.2944336.1367493-.6791992.3143616-1.3271484.8310242-1.9448242,1.5499878-.6186523.7194214-1.2612305,1.5756226-1.9301758,2.5681152-.2026367.3039246-.4814453.5622559-.8354492.7749939-.3549805.212738-.6337891.3190918-.8359375.3190918-.0810547,0-.2636719-.0251465-.5473633-.0759583-.2836914-.050354-.5878906-.1567078-.9116211-.3191223-.3242188-.1619263-.612793-.4050598-.8662109-.7294006-.253418-.3238525-.4003906-.7597961-.4404297-1.3068542-.0410156-.5874023-.0410156-1.3571777,0-2.3097839.0400391-.9520874.1064453-1.9702148.1972656-3.0543518.0913086-1.0836487.1875-2.1321716.2890625-3.1455688.0400391-.5470276,0-.9877319-.121582-1.3220215-.121582-.3343201-.121582-.6937866,0-1.0789185.1010742-.3039246.2734375-.5722046.5166016-.8053894.2431641-.232666.4355469-.4102783.5771484-.5318604.2431641-.2226868.5673828-.4406738.9726562-.6534119s.8100586-.4102783,1.2158203-.5926208c.4047852-.182373.7597656-.3390808,1.0634766-.4710999.3041992-.1315308.4863281-.2174683.5473633-.2583313.1416016-.1011353.2475586-.2174683.3188477-.3494873.0708008-.1315308.0151367-.2987061-.1669922-.5014648-.2431641-.3039246-.4711914-.5366211-.684082-.6990051-.2124023-.1619263-.4506836-.3139038-.7138672-.4558716-.1015625-.060791-.2026367-.121582-.3041992-.182373-.1015625-.0607605-.1416016-.1111145-.121582-.151947.0200195-.080719.1621094-.1315308.4257812-.1519775.2631836-.019928.4355469-.019928.5166016,0,.121582,0,.3442383.0104675.668457.0303955.3242188.0204468.6884766.1016235,1.0942383.2431335.4052734.1419983.7900391.3851318,1.1547852.7294006.3647461.3447876.6582031.8509827.8813477,1.5195923.1416016.3851318.1567383.7094727.0458984.9725342-.1118164.2635803-.2539062.4663391-.4257812.6078491-.1723633.1419983-.2885742.223175-.3496094.2431335-.2026367.0408325-.4555664-.0303955-.7597656-.212738-.0605469-.060791-.1875-.1519775-.3798828-.2735291-.1928711-.121582-.4663086-.212738-.8203125-.2735291-.3549805-.060791-.8056641-.0199585-1.3525391.121582-.546875.1419678-1.2158203.4663086-2.0058594.9725342-.2231445.1419678-.3901367.3091431-.5014648.5014648-.1118164.1927795-.1875.4306946-.2280273.7142029-.0405273.223175-.0102539.4207153.0913086.5926208.1010742.1723938.2021484.3799133.3037109.6230469.1010742.2431335.1416016.5774536.121582,1.0029297-.0205078.1419678-.0605469.4558716-.121582.9421387-.0605469.4862671-.1318359,1.0485229-.2124023,1.6867371-.081543.6382446-.1523438,1.271698-.2128906,1.8995056-.0610352.6282349-.0913086,1.1448975-.0913086,1.5499573,0,.3647156.0302734.6790771.0913086.9421692.0605469.2635498.1416016.5066833.2431641.7294006.1821289.3646851.3745117.5470276.5771484.5470276.121582.0204163.2783203-.0047302.4711914-.0759583.1923828-.0707703.4101562-.2075195.6533203-.4103088.1015625-.080719.3344727-.2583313.6992188-.5318604.3647461-.2734985.8251953-.5774231,1.3828125-.9117432.5571289-.3342896,1.1547852-.6429749,1.7929688-.9269409.6381836-.2835083,1.2768555-.4862671,1.9150391-.6078491.6381836-.1215515,1.2304688-.1011353,1.777832.060791Z"/>
      <path class="cls-2" d="m131.0629883,75.6027527c-1.3476562.9625549-2.7709961,1.6767883-4.2700195,2.1426086-1.5.4663391-2.9887695.5470581-4.4677734.2431335-1.4589844-.303894-2.5986328-.9672852-3.4189453-1.9906616-.8208008-1.0228577-1.2514648-2.6084595-1.2919922-4.7562866-.0405273-1.6611023-.0253906-3.1303711.0458984-4.4068298.0708008-1.2764282.1567383-2.4109192.2583008-3.4038696.1010742-.9924622.1870117-1.8942566.2583008-2.7048645.0708008-.8101196.0761719-1.590332.0151367-2.3401794-.0605469-.6885376-.1518555-1.2052002-.2734375-1.5499573-.121582-.3442993-.269043-.5874329-.440918-.7294006-.1723633-.14151-.3491211-.263092-.5317383-.3647156-.121582-.080719-.1875-.1975403-.1972656-.3494873-.0107422-.1519775.1259766-.2478943.4101562-.2887268.5668945-.0807495,1.1445312.0204163,1.7324219.303894.4047852.182373.7089844.4815369.9116211.8965759.2021484.4154968.3388672.8614197.4101562,1.3372498.0708008.4762878.0859375.8965454.0458984,1.2612305-.0205078.2839966-.0610352.6182861-.121582,1.0029297-.0610352.3851318-.1020508.7802124-.121582,1.1853027-.1420898,1.4184265-.2788086,2.7153015-.4106445,3.8901367-.1318359,1.175293-.2231445,2.2998047-.2734375,3.3734741-.0507812,1.0741577-.0356445,2.1682739.0458984,3.2823181.0805664,1.1753235.2832031,2.0718689.6074219,2.6896667.3242188.6182861.7700195,1.0637207,1.3374023,1.3372498.5668945.2735291,1.2358398.4815063,2.0058594.6230164.3847656.0812073.8862305.121582,1.5043945.121582.6176758,0,1.3725586-.121582,2.2641602-.3647156s1.9345703-.6785889,3.1303711-1.3068237c1.1953125-.6278076,2.5629883-1.5395508,4.1030273-2.73526.121582-.1011658.2529297-.1923218.3950195-.2735291.1416016-.0807495.2431641-.0911865.3037109-.0303955.0610352.0812073.0458984.1823425-.0454102.3039246-.0913086.1215515-.1977539.2535706-.3193359.3950806-1.0537109,1.175293-2.2539062,2.2442322-3.6010742,3.2063293Z"/>
      <path class="cls-2" d="m155.543457,56.8358459c.9726562-.1619263,2.0820312-.182373,3.328125-.060791,1.2456055.1215515,2.4868164.4254761,3.7226562.9117432,1.2358398.4862671,2.3554688,1.1852722,3.3583984,2.0970459,1.0029297.9117432,1.7675781,2.0666199,2.2944336,3.4646606.5268555,1.3980103.6889648,3.0800171.4863281,5.0450439-.1621094,1.6411438-.5927734,3.0239563-1.2915039,4.148468-.6992188,1.1244812-1.5454102,2.0466919-2.5375977,2.7656555-.9931641.7194214-2.0263672,1.2868958-3.1000977,1.7019348-1.0742188.4154968-2.097168.7142029-3.0698242.8965454-.972168.1823425-1.7880859.2991638-2.4462891.3495178-.6586914.0508118-1.0385742.0864258-1.1396484.1063538-1.0136719.1011658-1.5302734.060791-1.5498047-.1215515-.0410156-.1011658.0957031-.1719055.4101562-.212738.3139648-.0403748.5722656-.0807495.7749023-.121582.668457-.1011353,1.4838867-.2887268,2.4462891-.5622559.9624023-.2734985,1.9550781-.6534119,2.9785156-1.139679,1.0229492-.4862671,1.9956055-1.0988464,2.9174805-1.8387146.921875-.7393494,1.6967773-1.6359253,2.3251953-2.6896667.6279297-1.0532532,1.0029297-2.2893372,1.1245117-3.7077942.1621094-1.7627258.0048828-3.2770691-.4711914-4.5435486-.4760742-1.2660217-1.1547852-2.3045654-2.0361328-3.1151733-.8813477-.8101196-1.8642578-1.4179688-2.9482422-1.8235168-1.0839844-.4050598-2.152832-.6382141-3.2060547-.6990051-.4057617-.0403442-.8007812-.0403442-1.1855469,0,.121582.2431335.2685547.6282654.440918,1.1549072.171875.5270996.293457,1.1852722.3647461,1.9754639.0708008.7901917.0200195,1.7123718-.1518555,2.7656555-.1723633,1.0537109-.5322266,2.2290344-1.0791016,3.5254211-.8310547,1.9450684-1.7275391,3.5458679-2.6894531,4.8019104-.9628906,1.2565002-1.8647461,2.1782227-2.7050781,2.7656555-.8408203.5878906-1.4638672.8614197-1.8691406.8205872-.425293-.0403748-.9116211-.3238831-1.4584961-.8509827-.5473633-.5266418-1.0336914-1.2560425-1.4589844-2.1882019-.425293-.9317017-.6791992-2.0258179-.7597656-3.2823181-.1015625-1.5195923.0405273-2.9024048.425293-4.148468s.9423828-2.3449097,1.671875-3.2975159c.7290039-.9521179,1.5546875-1.7674866,2.4765625-2.4465332.921875-.6785889,1.8691406-1.2204285,2.8417969-1.6259766.9726562-.4050598,1.894043-.6785889,2.765625-.8205566Zm.5776367,6.8685303c.1411133-.4862671.2475586-1.0888672.3188477-1.8083191.0708008-.7189331.0913086-1.4535828.0610352-2.2033997-.0307617-.7493286-.1269531-1.4079895-.2890625-1.9754639-1.2563477.1419983-2.4667969.5066833-3.6318359,1.0941162-1.1650391.5878906-2.2084961,1.3980103-3.1303711,2.4313354s-1.6157227,2.2694092-2.081543,3.7077942c-.4057617,1.2565002-.5878906,2.3658142-.5473633,3.3279114.0405273.9625549.1977539,1.7778931.4711914,2.4465332.2734375.6686096.5722656,1.1904907.8964844,1.565155.3242188.3751526.5571289.6030884.6992188.6838379.1821289.1016235.3798828.1215515.5927734.0607605.2124023-.0607605.4604492-.1823425.7446289-.3646851.8706055-.6481934,1.6508789-1.4079895,2.3398438-2.2793884.6884766-.8709106,1.28125-1.7522583,1.777832-2.6440735.496582-.8913269.8916016-1.7019348,1.1855469-2.4313354.293457-.7294006.4912109-1.2660217.5927734-1.6107788Z"/>
      <path class="cls-2" d="m201.2524414,64.5857544l.668457-.9421692c.1821289-.2227173.3442383-.4354553.4863281-.6382141.1416016-.202301.2734375-.3039246.3950195-.3039246.1010742,0,.2885742.096405.5625.2887268.2734375.1928101.5668945.4207458.8813477.6838074.3134766.2635498.5874023.5166626.8203125.7597961s.3496094.4254761.3496094.5470581c-.0810547.3243408-.3344727.4862671-.7597656.4862671h-6.8989258v12.1871033h5.0751953l.6689453-.9725342c.1821289-.2431335.3491211-.4658508.5014648-.6686401.1518555-.2022705.2885742-.303894.4101562-.303894.0805664,0,.2631836.0963745.546875.2886963.2836914.1928101.5927734.4255066.9272461.6990356.3339844.2735291.6176758.5370789.8505859.7901611.2329102.2536011.3496094.4407043.3496094.5622559-.0810547.3238831-.3447266.4862671-.7900391.4862671h-21.2436523c-.7905273.0199585-1.5605469.0655518-2.3100586.1367798-.75.0707397-1.4995117.1671448-2.2490234.2887268l-.8203125-1.5499878c.6479492.0812073,1.2861328.1367493,1.9145508.1671448.6279297.0303955,1.2661133.0560303,1.9145508.0759888h1.8237305v-15.3782349c0-1.0333252-.0307617-2.1221924-.0913086-3.2671204-.0610352-1.1444397-.1625977-2.1321716-.3037109-2.9631958l3.2822266.9421387c1.3369141-.2431335,2.699707-.5266418,4.0874023-.8509521,1.3876953-.3238831,2.699707-.6686401,3.9360352-1.0333252.9521484-.263092,1.8637695-.5774536,2.7353516-.9421387.8706055-.3647156,1.6713867-.7697754,2.4008789-1.2156982.7695312.8509827,1.3066406,1.479248,1.6108398,1.8843079.3037109.4055481.4350586.6586304.3950195.7597961-.0410156.1016235-.1928711.1419678-.4560547.1215515l-.7900391-.091156c-1.2763672.303894-2.7353516.5978394-4.3764648.8813477-1.6411133.2839661-3.3637695.5422974-5.1665039.7749939-1.8037109.2331543-3.5864258.4002991-5.3491211.5014648v6.8077698h14.0107422Zm-5.409668.8813477h-8.6010742v12.1871033h8.6010742v-12.1871033Z"/>
    </g>
    <g>
      <path class="cls-1" d="m82.3555476,13.0932727h1.293564c.4231859,0,.9588316.0726956.9588316.5646911v4.4299494s-1.4526204.5262894-4.084006.5262894c-2.6283694,0-6.1524158-1.4255364-6.1524158-5.3764003,0-3.9378843,3.6685759-5.4827662,6.3847218-5.4827662,1.2169904,0,2.7450149.0724494,2.7450149.7469001v1.3194168c-1.0330046-.8298221-1.4492964-.9771132-3.0172696-.9771132-1.5674192,0-4.3716493,1.0162002-4.3716493,4.3009766,0,3.2887324,3.763862,5.2420355,6.8881746,4.0061479v-2.51838c0-.5277585-.0306541-1.5397115-.6449662-1.5397115Z"/>
      <path class="cls-1" d="m102.0243686,18.350627h3.3247931c-.9209141-.3375639-1.298119-1.4240591-1.5996121-2.216017-.3119573-.7890032-2.7161458-6.5356528-2.986-7.3324119-.2654222-.7853715-.6495212-.7853715-.9534148-.7853715h-1.9118156c.9214681.3011237.4192482.9422119.2680691,1.3885423-.1526547.4550711-3.3653592,8.2698841-3.3653592,8.2698841-1.110563-.2984769-3.8931244-4.3250609-3.8931244-4.3250609,3.7106774-1.0519633,3.134529-5.3333656-.4889875-5.3333656h-4.1648268c.8367694.1818315.7609961,1.0528251.7609961,1.7240133v7.1108779c0,.977421-.3068483,1.2361954-.7967591,1.4989092h3.0485392c-.8367694-.3733269-.6152354-1.2395193-.6152354-1.6473782v-7.6705298h1.6473782c.8761026,0,1.5250083,1.0537484,1.5250083,1.7708562,0,1.1574674-.9161129,1.6116069-1.8330876,1.9515181-.9143279.3339322-.4183847,1.0868646,0,1.6927437.4279872.5990466,1.6464549,2.2890738,2.3710724,3.1156333.7285554.8237814,1.3675507.7871566,1.7209956.7871566h2.7510471c-1.0666731-.3375639-.4989593-1.1619609-.3501809-1.5719126.1527146-.4226319.8457563-2.1845094.8457563-2.1845094h4.1194595s.498036,1.2752906.9558154,2.4053663c.4598108,1.1319223.1156606,1.2782985-.380527,1.3510557Zm-4.2784578-4.9577079l1.5728359-4.0257139,1.6723077,4.0257139h-3.2451436Z"/>
      <path class="cls-1" d="m135.4674458,18.350627h3.3299013c-.9175875-.3375639-1.3002119-1.4240591-1.5992427-2.216017-.3062916-.7890032-2.7152841-6.5356528-2.9812603-7.3324119-.2696079-.7853715-.6495212-.7853715-.9563694-.7853715h-1.9079351c.918511.3011237.4189977.9422119.2689924,1.3885423-.15752.4550711-3.3626534,8.2698841-3.3626534,8.2698841-.2151939.4875102-.5289978.4992055-.7198162.675374h2.7431682c-1.0696909-.3375639-.492927-1.1619609-.3453197-1.5719126.1472379-.4226319.83917-2.1845094.83917-2.1845094h4.1305409s.4983438,1.2752906.953661,2.4053663c.4517471,1.1319223.1099976,1.2782985-.392837,1.3510557Zm-4.2681765-4.9577079l1.560461-4.0257139,1.6861574,4.0257139h-3.2466184Z"/>
      <path class="cls-1" d="m123.7165392,18.5462466c.3829294-.345012.7282491-.6058791.7282491-1.8093358v-7.1036679c0-.5635913-.0294206-1.2019712-.7282491-1.4345849h2.9466667c-.3038321.2668995-.6666333.6035401-.6666333,1.3570265v7.1812263c0,.6398653-.1394205,1.5815233.7132299,1.8093358h-2.9932634Z"/>
      <path class="cls-1" d="m107.9020655,10.4221846s-.0375481,5.6745079-.0375481,6.3147262c0,.6398653.0841448,1.5815233.9215297,1.8093358h-2.7925347c.3850223-.345012.6913165-.6058791.6913165-1.8093358,0-1.1995008.0715261-6.5443853.0715261-7.1036679,0-.5635913-.0715261-1.2019712-.7628427-1.4345849h2.1427058l6.412975,7.935952v-6.4668351c0-.4129679.0802689-1.2022174-.7976208-1.5030949h2.8639993c-.3450714.2665918-.8481569.3741887-.8481569,1.4685629v9.3278182s-.7910961.1448373-2.092539-1.3975908c-1.3010736-1.5388579-5.7728101-7.1412857-5.7728101-7.1412857Z"/>
      <path class="cls-1" d="m126.1540902,26.5438144c-8.4009333-6.9666561-11.6111756-15.1685843-.1232317-26.3655609.3573252-.3441588.7017808-.1385674.4183847.182447-5.0400675,5.6613353-10.6487739,14.7285325-.117261,25.8347781"/>
    </g>
  </g>
</svg>